<svg version="1.2" xmlns="http://www.w3.org/2000/svg" viewBox="0 0 400 400" width="104" height="50">
	<title>New Project</title>
	<style>
		.s0 { fill: #000000 } 
	</style>
	<path id="ANG" class="s0" aria-label="ANG"  d="m112.1 241h27.2l-38.1-105.3h-29.7l-38.1 105.3h26.9l6.3-18.6h39.3zm-12.9-38.4h-26l12.9-38.5zm120.1-66.9v65.2l-42.8-65.2h-25.7v105.3h25.7v-65l42.8 65h25.7v-105.3zm93.5-1.2c-31.5 0-53.6 22.2-53.6 53.7 0 31.5 22.2 53.5 53.7 53.5 27.8 0 45.3-18.1 50.7-36.3v-23.8h-55.8v18.9h32.6c-3.9 11.8-12.8 18.6-25.5 18.6-18.5 0-29.6-11.4-29.6-30.9 0-18.3 11-30 27.5-30 9.6 0 16.8 3.7 20.7 10.8h28.3c-5.5-21.6-23.8-34.5-49-34.5z"/>
</svg>