<svg version="1.2" xmlns="http://www.w3.org/2000/svg" viewBox="0 0 234 72" width="234" height="72">
	<title>New Project</title>
	<style>
		.s0 { fill: #000000 } 
	</style>
	<path id="A N G" class="s0" aria-label="A N G"  d="m70.4 66h-12.3l6.1-63.6h21.6l6 63.6h-12l-0.9-10.3h-7.7zm4.2-52.7l-2.5 32.3h5.8l-2.8-32.3zm51 52.7h-12.4v-63.6h13l5.9 30.5v-30.5h12.3v63.6h-12.5l-6.3-31.8zm54.9 0.6q-13.7 0-13.7-19.5v-27.4q0-17.8 15.7-17.8 6.4 0 9.8 2.6 3.5 2.5 4.8 7.5 1.3 4.9 1.3 12.1h-12.5v-5.7q0-2-0.6-3.4-0.5-1.4-2.3-1.4-2.2 0-2.9 1.5-0.7 1.4-0.7 3.2v30.8q0 2.6 0.7 4.2 0.7 1.6 2.6 1.6 2 0 2.7-1.6 0.7-1.6 0.7-4.2v-9.1h-3.4v-11h15.5v37h-5.1l-2.2-5.3q-3.3 5.9-10.4 5.9z"/>
</svg>