<?xml version="1.0" encoding="UTF-8"?>
<svg version="1.1" xmlns="http://www.w3.org/2000/svg" width="90" height="32">
<path d="M0 0 C2.734375 0.0078125 2.734375 0.0078125 5.125 0.375 C7.25 2.875 7.25 2.875 8.125 5.375 C8.785 3.725 9.445 2.075 10.125 0.375 C11.77074566 0.34811849 13.41661413 0.32865877 15.0625 0.3125 C15.97902344 0.30089844 16.89554688 0.28929688 17.83984375 0.27734375 C20.125 0.375 20.125 0.375 21.125 1.375 C21.21237645 3.22869611 21.23198153 5.08567541 21.22265625 6.94140625 C21.21943359 8.06611328 21.21621094 9.19082031 21.21289062 10.34960938 C21.20451172 11.53361328 21.19613281 12.71761719 21.1875 13.9375 C21.18298828 15.12537109 21.17847656 16.31324219 21.17382812 17.53710938 C21.16199675 20.48312226 21.14551287 23.42903681 21.125 26.375 C17.99793041 27.9385348 14.54517557 27.77458487 11.125 27.375 C8.125 25.375 8.125 25.375 7.125 22.375 C7.00125 23.014375 6.8775 23.65375 6.75 24.3125 C6.54375 24.993125 6.3375 25.67375 6.125 26.375 C3.87987738 27.49756131 2.61043351 27.50913762 0.125 27.5 C-0.926875 27.50386719 -0.926875 27.50386719 -2 27.5078125 C-3.875 27.375 -3.875 27.375 -5.875 26.375 C-5.90386751 22.22918113 -5.92175327 18.08338784 -5.9375 13.9375 C-5.94587891 12.75349609 -5.95425781 11.56949219 -5.96289062 10.34960938 C-5.96611328 9.22490234 -5.96933594 8.10019531 -5.97265625 6.94140625 C-5.97789307 5.89927979 -5.98312988 4.85715332 -5.98852539 3.78344727 C-5.78886834 -0.45228772 -3.79274292 0.14291495 0 0 Z " fill="#000000" transform="translate(37.875,0.625)"/>
<path d="M0 0 C2 3 2 3 2 7 C-1.96 7 -5.92 7 -10 7 C-10 6.01 -10 5.02 -10 4 C-10.99 4 -11.98 4 -13 4 C-13 8.29 -13 12.58 -13 17 C-12.01 16.67 -11.02 16.34 -10 16 C-9.67 15.34 -9.34 14.68 -9 14 C-9.99 13.67 -10.98 13.34 -12 13 C-12 11.35 -12 9.7 -12 8 C-7.38 8 -2.76 8 2 8 C2 12.95 2 17.9 2 23 C-1.9488072 23.9872018 -2.44351381 23.90775076 -6 23 C-7.61005774 23.15642102 -9.21533553 23.3684476 -10.8125 23.625 C-15.8737711 24.2081302 -18.60790897 23.5620531 -23 21 C-25.48833262 17.26750107 -25.36309518 15.08053598 -25.4375 10.625 C-25.47746094 9.31789063 -25.51742187 8.01078125 -25.55859375 6.6640625 C-24.86895832 2.14043991 -23.58880233 0.74952718 -20 -2 C-13.32631575 -4.60311967 -6.09142171 -3.35649768 0 0 Z " fill="#000000" transform="translate(86,4)"/>
<path d="M0 0 C0.74886475 0.00523682 1.49772949 0.01047363 2.26928711 0.01586914 C3.07817383 0.0190918 3.88706055 0.02231445 4.72045898 0.02563477 C5.5705957 0.03401367 6.42073242 0.04239258 7.29663086 0.05102539 C8.15063477 0.05553711 9.00463867 0.06004883 9.88452148 0.06469727 C12.00108749 0.07652166 14.11761771 0.0944577 16.23413086 0.11352539 C17.81538274 4.56853069 18.92683457 8.98029534 19.85913086 13.61352539 C20.2497168 15.51618164 20.2497168 15.51618164 20.64819336 17.45727539 C21.17753906 20.76039253 21.3473724 23.77804741 21.23413086 27.11352539 C19.77589874 27.14052969 18.31752411 27.15992326 16.85913086 27.17602539 C16.04702148 27.18762695 15.23491211 27.19922852 14.39819336 27.21118164 C12.23413086 27.11352539 12.23413086 27.11352539 10.23413086 26.11352539 C9.90413086 25.12352539 9.57413086 24.13352539 9.23413086 23.11352539 C7.21904728 22.38028743 7.21904728 22.38028743 5.23413086 22.11352539 C5.11038086 22.75290039 4.98663086 23.39227539 4.85913086 24.05102539 C4.65288086 24.73165039 4.44663086 25.41227539 4.23413086 26.11352539 C1.82867448 27.31625358 0.28416133 27.21424011 -2.39086914 27.17602539 C-3.61676758 27.16249023 -3.61676758 27.16249023 -4.86743164 27.14868164 C-5.49391602 27.13708008 -6.12040039 27.12547852 -6.76586914 27.11352539 C-5.1511319 0.33115945 -5.1511319 0.33115945 0 0 Z M6.23413086 12.11352539 C6.23413086 13.76352539 6.23413086 15.41352539 6.23413086 17.11352539 C6.89413086 17.11352539 7.55413086 17.11352539 8.23413086 17.11352539 C8.23413086 15.46352539 8.23413086 13.81352539 8.23413086 12.11352539 C7.57413086 12.11352539 6.91413086 12.11352539 6.23413086 12.11352539 Z " fill="#000000" transform="translate(8.765869140625,0.886474609375)"/>
</svg>
