<?xml version="1.0" encoding="UTF-8"?>
<svg version="1.1" xmlns="http://www.w3.org/2000/svg" width="90" height="32">
<path d="M0 0 C4.62 0 9.24 0 14 0 C14.99 3.96 15.98 7.92 17 12 C17.144375 10.205625 17.28875 8.41125 17.4375 6.5625 C17.875 1.125 17.875 1.125 19 0 C21.67538915 -0.04315144 24.32694821 -0.04680441 27 0 C28.66931197 0 30.33875637 -0.00593153 32.0078125 -0.03515625 C34.00507614 -0.06095117 36.00282955 -0.03221243 38 0 C39 1 39 1 39.11352539 2.85766602 C39.10828857 3.64842529 39.10305176 4.43918457 39.09765625 5.25390625 C39.09515869 6.0229126 39.09266113 6.79191895 39.09008789 7.58422852 C39.08098389 8.56705811 39.07187988 9.5498877 39.0625 10.5625 C39.041875 13.676875 39.02125 16.79125 39 20 C29.1 20 19.2 20 9 20 C9 19.01 9 18.02 9 17 C5.88214887 17.64644661 5.88214887 17.64644661 5 20 C2.03 20 -0.94 20 -4 20 C-2.07289294 6.3667426 -2.07289294 6.3667426 0 0 Z " fill="#FEFEFE" transform="translate(14,5)"/>
<path d="M0 0 C2.0625 1.125 2.0625 1.125 3.0625 3.125 C3.13431821 5.84260108 3.15549506 8.53359388 3.125 11.25 C3.12048828 12.00410156 3.11597656 12.75820313 3.11132812 13.53515625 C3.09953499 15.39847127 3.08159942 17.26174555 3.0625 19.125 C0.47853321 19.20612454 -2.10287568 19.26554748 -4.6875 19.3125 C-5.41710937 19.33763672 -6.14671875 19.36277344 -6.8984375 19.38867188 C-10.02153242 19.43125953 -12.54688174 19.29101276 -15.4375 18.0625 C-17.7352575 15.09456324 -17.32267367 12.6209824 -17.1875 8.9375 C-17.15140625 7.66519531 -17.1153125 6.39289062 -17.078125 5.08203125 C-17.03171875 4.10621094 -16.9853125 3.13039063 -16.9375 2.125 C-10.85688504 -1.15316937 -6.78247118 -2.02031057 0 0 Z M-7.9375 4.125 C-7.9375 5.115 -7.9375 6.105 -7.9375 7.125 C-7.2775 7.125 -6.6175 7.125 -5.9375 7.125 C-5.9375 6.135 -5.9375 5.145 -5.9375 4.125 C-6.5975 4.125 -7.2575 4.125 -7.9375 4.125 Z M-7.9375 11.125 C-7.9375 12.115 -7.9375 13.105 -7.9375 14.125 C-7.2775 14.125 -6.6175 14.125 -5.9375 14.125 C-6.2675 13.135 -6.5975 12.145 -6.9375 11.125 C-7.2675 11.125 -7.5975 11.125 -7.9375 11.125 Z " fill="#FEFEFE" transform="translate(70.9375,5.875)"/>
</svg>
