<?xml version="1.0" encoding="UTF-8"?>
<svg version="1.1" xmlns="http://www.w3.org/2000/svg" width="234" height="72">
<path d="M0 0 C4.43737712 -0.08690253 8.87453634 -0.14035926 13.3125 -0.1875 C14.57513672 -0.21263672 15.83777344 -0.23777344 17.13867188 -0.26367188 C18.34716797 -0.27333984 19.55566406 -0.28300781 20.80078125 -0.29296875 C21.91622314 -0.3086792 23.03166504 -0.32438965 24.1809082 -0.34057617 C27 0 27 0 28.88745117 1.33081055 C30 3 30 3 30 6 C30.66 6 31.32 6 32 6 C32 6.99 32 7.98 32 9 C32.66 9 33.32 9 34 9 C35.91847864 11.87771795 37.50079488 14.88626628 39 18 C39.66 18 40.32 18 41 18 C41 19.32 41 20.64 41 22 C41.66 22 42.32 22 43 22 C43 22.99 43 23.98 43 25 C43.99 25.33 44.98 25.66 46 26 C46 26.66 46 27.32 46 28 C46.66 28 47.32 28 48 28 C48 29.32 48 30.64 48 32 C48.66 32 49.32 32 50 32 C50 32.66 50 33.32 50 34 C50.66 34 51.32 34 52 34 C52 25.75 52 17.5 52 9 C49.69 9 47.38 9 45 9 C45 6.03 45 3.06 45 0 C54.9 0 64.8 0 75 0 C75 2.64 75 5.28 75 8 C74 9 74 9 70.9375 9.0625 C69.968125 9.041875 68.99875 9.02125 68 9 C68.01571045 10.25659424 68.0314209 11.51318848 68.04760742 12.80786133 C68.10186183 17.46502282 68.13633376 22.12215631 68.16479492 26.77954102 C68.17989179 28.79619034 68.20037115 30.81280679 68.22631836 32.8293457 C68.26266211 35.72615671 68.2797172 38.62253406 68.29296875 41.51953125 C68.30845261 42.42274612 68.32393646 43.325961 68.33988953 44.25654602 C68.34011612 45.09719101 68.34034271 45.937836 68.34057617 46.80395508 C68.35056892 47.91315056 68.35056892 47.91315056 68.36076355 49.04475403 C67.88875791 51.60290361 67.08415457 52.47426429 65 54 C62.18872957 54.21714241 59.6116655 54.28284276 56.8125 54.1875 C56.06291016 54.17396484 55.31332031 54.16042969 54.54101562 54.14648438 C52.69370233 54.11118539 50.84675934 54.05737917 49 54 C48.34 52.68 47.68 51.36 47 50 C46.34 50 45.68 50 45 50 C45 49.01 45 48.02 45 47 C44.34 47 43.68 47 43 47 C41.78125 45.28515625 41.78125 45.28515625 40.5 43.0625 C38.81545121 39.94567974 38.81545121 39.94567974 36 38 C36 36.68 36 35.36 36 34 C35.34 34 34.68 34 34 34 C32.78125 32.5390625 32.78125 32.5390625 31.5 30.625 C30.07753774 28.51732726 28.80845027 26.80845027 27 25 C27 24.01 27 23.02 27 22 C26.34 22 25.68 22 25 22 C24.01 20.02 23.02 18.04 22 16 C21.67 24.91 21.34 33.82 21 43 C22.98 43 24.96 43 27 43 C27 43.66 27 44.32 27 45 C27.99 45 28.98 45 30 45 C30 47.31 30 49.62 30 52 C29.01 52 28.02 52 27 52 C27 52.66 27 53.32 27 54 C23.06256167 54.05797565 19.12523281 54.09358789 15.1875 54.125 C14.06794922 54.14175781 12.94839844 54.15851563 11.79492188 54.17578125 C10.72177734 54.18222656 9.64863281 54.18867187 8.54296875 54.1953125 C7.0583313 54.21102295 7.0583313 54.21102295 5.54370117 54.22705078 C3 54 3 54 0 52 C-0.375 48.5 -0.375 48.5 0 45 C3 43 3 43 7 43 C7 31.78 7 20.56 7 9 C4.69 9 2.38 9 0 9 C0 6.03 0 3.06 0 0 Z " fill="#F3F3F3" transform="translate(84,10)"/>
<path d="M0 0 C8.91 0 17.82 0 27 0 C27 1.32 27 2.64 27 4 C27.66 4.33 28.32 4.66 29 5 C28.34 5 27.68 5 27 5 C27 6.32 27 7.64 27 9 C26.34 9.66 25.68 10.32 25 11 C25.66 11.33 26.32 11.66 27 12 C27 13.32 27 14.64 27 16 C27.66 16 28.32 16 29 16 C29 17.65 29 19.3 29 21 C29.66 21 30.32 21 31 21 C31.185625 21.9590625 31.185625 21.9590625 31.375 22.9375 C31.58125 23.618125 31.7875 24.29875 32 25 C32.66 25.33 33.32 25.66 34 26 C35.96808719 29.06146896 36.19990835 31.40164967 36 35 C36.66 35 37.32 35 38 35 C39.25664978 37.90600261 40 39.79604584 40 43 C40.78375 43.144375 41.5675 43.28875 42.375 43.4375 C45 44 45 44 47 45 C47 47.31 47 49.62 47 52 C46.01 52 45.02 52 44 52 C44 52.66 44 53.32 44 54 C40.56257082 54.05802698 37.12526747 54.09360486 33.6875 54.125 C32.71103516 54.14175781 31.73457031 54.15851563 30.72851562 54.17578125 C29.79072266 54.18222656 28.85292969 54.18867187 27.88671875 54.1953125 C27.02264404 54.20578613 26.15856934 54.21625977 25.26831055 54.22705078 C23 54 23 54 20 52 C19.8125 48.375 19.8125 48.375 20 45 C20.99 45 21.98 45 23 45 C23 43.02 23 41.04 23 39 C15.41 39 7.82 39 0 39 C-0.66 40.32 -1.32 41.64 -2 43 C-0.68 43 0.64 43 2 43 C3.125 50.625 3.125 50.625 2 54 C-6.25 54 -14.5 54 -23 54 C-24.125 46.125 -24.125 46.125 -23 43 C-20.03 42.505 -20.03 42.505 -17 42 C-16.67 40.68 -16.34 39.36 -16 38 C-15.34 38 -14.68 38 -14 38 C-14 36.68 -14 35.36 -14 34 C-13.34 34 -12.68 34 -12 34 C-12 32.35 -12 30.7 -12 29 C-11.34 29 -10.68 29 -10 29 C-10 27.35 -10 25.7 -10 24 C-9.34 23.67 -8.68 23.34 -8 23 C-7.09274566 20.88672575 -7.09274566 20.88672575 -6.375 18.4375 C-5.98441406 17.19806641 -5.98441406 17.19806641 -5.5859375 15.93359375 C-5.39257812 15.29550781 -5.19921875 14.65742188 -5 14 C-4.34 14 -3.68 14 -3 14 C-3 12.35 -3 10.7 -3 9 C-2.01 9 -1.02 9 0 9 C0 8.34 0 7.68 0 7 C-0.99 6.67 -1.98 6.34 -3 6 C-3 4.68 -3 3.36 -3 2 C-2.01 2 -1.02 2 0 2 C0 1.34 0 0.68 0 0 Z M11 13 C11 13.99 11 14.98 11 16 C10.34 16 9.68 16 9 16 C9 17.32 9 18.64 9 20 C8.34 20 7.68 20 7 20 C7 21.65 7 23.3 7 25 C6.01 25.33 5.02 25.66 4 26 C4 26.99 4 27.98 4 29 C4.66 29 5.32 29 6 29 C6 28.34 6 27.68 6 27 C9.63 27 13.26 27 17 27 C17 26.01 17 25.02 17 24 C16.34 24 15.68 24 15 24 C15 22.35 15 20.7 15 19 C14.34 19 13.68 19 13 19 C13 17.35 13 15.7 13 14 C12.34 13.67 11.68 13.34 11 13 Z M25 42 C26 44 26 44 26 44 Z " fill="#F8F8F8" transform="translate(33,10)"/>
<path d="M0 0 C11.88 0 23.76 0 36 0 C36 0.66 36 1.32 36 2 C37.32 2 38.64 2 40 2 C42 4 42 4 43 6 C43.66 6 44.32 6 45 6 C45.02686553 7.97909398 45.04633375 9.95828971 45.0625 11.9375 C45.07410156 13.03964844 45.08570313 14.14179688 45.09765625 15.27734375 C45 18 45 18 44 19 C42.33570949 19.09823937 40.66718069 19.12973631 39 19.125 C37.63875 19.12886719 37.63875 19.12886719 36.25 19.1328125 C34 19 34 19 33 18 C32.95919217 16.00041636 32.95745644 13.99954746 33 12 C31.68 11.67 30.36 11.34 29 11 C29 10.34 29 9.68 29 9 C25.7073118 9.08064635 22.41650779 9.19350279 19.125 9.3125 C17.71927734 9.34633789 17.71927734 9.34633789 16.28515625 9.38085938 C15.38925781 9.41630859 14.49335938 9.45175781 13.5703125 9.48828125 C12.74289551 9.51446533 11.91547852 9.54064941 11.06298828 9.56762695 C8.60672068 9.83096637 8.60672068 9.83096637 7 13 C6.72289637 16.10479949 6.72289637 16.10479949 6.8046875 19.63671875 C6.81113281 20.93544922 6.81757813 22.23417969 6.82421875 23.57226562 C6.8409294 24.94401307 6.85785929 26.31575786 6.875 27.6875 C6.88503326 29.07095718 6.89415851 30.45442127 6.90234375 31.83789062 C6.92594963 35.22533457 6.96182117 38.61268895 7 42 C14.26 42.33 21.52 42.66 29 43 C29.33 42.01 29.66 41.02 30 40 C30.66 40 31.32 40 32 40 C32 38.02 32 36.04 32 34 C28.04 34 24.08 34 20 34 C20 33.34 20 32.68 20 32 C19.01 31.67 18.02 31.34 17 31 C17 29.02 17 27.04 17 25 C17.99 25 18.98 25 20 25 C20.33 24.01 20.66 23.02 21 22 C24.81248426 21.97112764 28.6249407 21.95324508 32.4375 21.9375 C33.52611328 21.92912109 34.61472656 21.92074219 35.73632812 21.91210938 C36.77080078 21.90888672 37.80527344 21.90566406 38.87109375 21.90234375 C39.82943115 21.89710693 40.78776855 21.89187012 41.77514648 21.88647461 C44 22 44 22 45 23 C45.08726223 24.78071246 45.10699041 26.5648314 45.09765625 28.34765625 C45.09443359 29.42724609 45.09121094 30.50683594 45.08789062 31.61914062 C45.07532227 33.32360352 45.07532227 33.32360352 45.0625 35.0625 C45.05798828 36.20267578 45.05347656 37.34285156 45.04882812 38.51757812 C45.03699747 41.34510351 45.0205141 44.1725264 45 47 C44.360625 47.12375 43.72125 47.2475 43.0625 47.375 C42.381875 47.58125 41.70125 47.7875 41 48 C40.505 48.99 40.505 48.99 40 50 C39.01 50 38.02 50 37 50 C37 50.66 37 51.32 37 52 C33.12048899 53.80696928 30.04689574 54.25665818 25.78125 54.265625 C24.01201172 54.26949219 24.01201172 54.26949219 22.20703125 54.2734375 C20.98371094 54.26570313 19.76039063 54.25796875 18.5 54.25 C16.66501953 54.26160156 16.66501953 54.26160156 14.79296875 54.2734375 C13.61347656 54.27085938 12.43398437 54.26828125 11.21875 54.265625 C10.14560547 54.26336914 9.07246094 54.26111328 7.96679688 54.25878906 C4.94143148 53.99489116 2.73914151 53.27581661 0 52 C0 51.34 0 50.68 0 50 C-1.32 50 -2.64 50 -4 50 C-4 49.34 -4 48.68 -4 48 C-4.99 47.67 -5.98 47.34 -7 47 C-7 46.34 -7 45.68 -7 45 C-7.99 44.67 -8.98 44.34 -10 44 C-10.09897181 38.94634708 -10.17151603 33.89325976 -10.21972656 28.83886719 C-10.23982628 27.12001721 -10.26711089 25.40123548 -10.30175781 23.68261719 C-10.35035034 21.21011511 -10.37298435 18.7385179 -10.390625 16.265625 C-10.41127014 15.49881409 -10.43191528 14.73200317 -10.45318604 13.94195557 C-10.45466543 10.41418073 -10.30692374 8.4100475 -8.16308594 5.54589844 C-5.57293085 3.69478535 -3.0097485 3.0032495 0 2 C0 1.34 0 0.68 0 0 Z " fill="#F1F1F1" transform="translate(177,10)"/>
<path d="M0 0 C0.99 0 1.98 0 3 0 C3 0.99 3 1.98 3 3 C2.01 3 1.02 3 0 3 C-0.2475 3.639375 -0.495 4.27875 -0.75 4.9375 C-2 7 -2 7 -6 8 C-6 19.88 -6 31.76 -6 44 C-4.68 44 -3.36 44 -2 44 C-2 44.66 -2 45.32 -2 46 C-0.02 46.66 1.96 47.32 4 48 C4 48.99 4 49.98 4 51 C13.57 51 23.14 51 33 51 C31.94049948 49.71573103 31.94049948 49.71573103 29.49975586 49.88647461 C27.87372437 49.89432983 27.87372437 49.89432983 26.21484375 49.90234375 C25.04501953 49.90556641 23.87519531 49.90878906 22.66992188 49.91210938 C20.82237305 49.92467773 20.82237305 49.92467773 18.9375 49.9375 C17.70193359 49.94201172 16.46636719 49.94652344 15.19335938 49.95117188 C12.12885883 49.96300392 9.06445279 49.97948827 6 50 C6.33 48.68 6.66 47.36 7 46 C14.59 46.33 22.18 46.66 30 47 C30 46.01 30 45.02 30 44 C30.66 43.67 31.32 43.34 32 43 C32 40.03 32 37.06 32 34 C28.04 34 24.08 34 20 34 C20 33.34 20 32.68 20 32 C19.01 31.67 18.02 31.34 17 31 C17 29.02 17 27.04 17 25 C17.99 25 18.98 25 20 25 C20.33 24.01 20.66 23.02 21 22 C24.81248426 21.97112764 28.6249407 21.95324508 32.4375 21.9375 C33.52611328 21.92912109 34.61472656 21.92074219 35.73632812 21.91210938 C36.77080078 21.90888672 37.80527344 21.90566406 38.87109375 21.90234375 C39.82943115 21.89710693 40.78776855 21.89187012 41.77514648 21.88647461 C44 22 44 22 45 23 C45.08726223 24.78071246 45.10699041 26.5648314 45.09765625 28.34765625 C45.09443359 29.42724609 45.09121094 30.50683594 45.08789062 31.61914062 C45.07532227 33.32360352 45.07532227 33.32360352 45.0625 35.0625 C45.05798828 36.20267578 45.05347656 37.34285156 45.04882812 38.51757812 C45.03699747 41.34510351 45.0205141 44.1725264 45 47 C44.360625 47.12375 43.72125 47.2475 43.0625 47.375 C42.381875 47.58125 41.70125 47.7875 41 48 C40.505 48.99 40.505 48.99 40 50 C39.01 50 38.02 50 37 50 C37 50.66 37 51.32 37 52 C33.12048899 53.80696928 30.04689574 54.25665818 25.78125 54.265625 C24.01201172 54.26949219 24.01201172 54.26949219 22.20703125 54.2734375 C20.98371094 54.26570313 19.76039063 54.25796875 18.5 54.25 C16.66501953 54.26160156 16.66501953 54.26160156 14.79296875 54.2734375 C13.61347656 54.27085938 12.43398437 54.26828125 11.21875 54.265625 C10.14560547 54.26336914 9.07246094 54.26111328 7.96679688 54.25878906 C4.94143148 53.99489116 2.73914151 53.27581661 0 52 C0 51.34 0 50.68 0 50 C-1.32 50 -2.64 50 -4 50 C-4 49.34 -4 48.68 -4 48 C-4.99 47.67 -5.98 47.34 -7 47 C-7 46.34 -7 45.68 -7 45 C-7.99 44.67 -8.98 44.34 -10 44 C-10.09897181 38.94634708 -10.17151603 33.89325976 -10.21972656 28.83886719 C-10.23982628 27.12001721 -10.26711089 25.40123548 -10.30175781 23.68261719 C-10.35035034 21.21011511 -10.37298435 18.7385179 -10.390625 16.265625 C-10.41127014 15.49881409 -10.43191528 14.73200317 -10.45318604 13.94195557 C-10.45466543 10.41418073 -10.30692374 8.4100475 -8.16308594 5.54589844 C-5.57293085 3.69478535 -3.0097485 3.0032495 0 2 C0 1.34 0 0.68 0 0 Z " fill="#F9F9F9" transform="translate(177,10)"/>
<path d="M0 0 C3 1 3 1 4.1875 2.75 C5.10819096 5.29960574 5.14948718 7.30923081 5 10 C5.66 10 6.32 10 7 10 C8.25664978 12.90600261 9 14.79604584 9 18 C10.175625 18.2165625 10.175625 18.2165625 11.375 18.4375 C14 19 14 19 16 20 C16 22.31 16 24.62 16 27 C15.01 27 14.02 27 13 27 C13 27.66 13 28.32 13 29 C9.56257082 29.05802698 6.12526747 29.09360486 2.6875 29.125 C1.71103516 29.14175781 0.73457031 29.15851563 -0.27148438 29.17578125 C-1.67817383 29.18544922 -1.67817383 29.18544922 -3.11328125 29.1953125 C-3.97735596 29.20578613 -4.84143066 29.21625977 -5.73168945 29.22705078 C-8 29 -8 29 -11 27 C-11.1875 23.375 -11.1875 23.375 -11 20 C-10.01 20 -9.02 20 -8 20 C-8 18.02 -8 16.04 -8 14 C-15.59 14 -23.18 14 -31 14 C-31.66 15.32 -32.32 16.64 -33 18 C-31.68 18 -30.36 18 -29 18 C-27.875 25.625 -27.875 25.625 -29 29 C-37.25 29 -45.5 29 -54 29 C-55.125 21.125 -55.125 21.125 -54 18 C-52.02 17.67 -50.04 17.34 -48 17 C-47.67 15.68 -47.34 14.36 -47 13 C-46.34 13 -45.68 13 -45 13 C-45 11.68 -45 10.36 -45 9 C-44.01 9 -43.02 9 -42 9 C-42.66666667 11.66666667 -43.33333333 14.33333333 -44 17 C-44.66 17 -45.32 17 -46 17 C-46 18.65 -46 20.3 -46 22 C-47.32 22 -48.64 22 -50 22 C-50 22.99 -50 23.98 -50 25 C-43.4 25.33 -36.8 25.66 -30 26 C-30 24.35 -30 22.7 -30 21 C-32.31 21 -34.62 21 -37 21 C-37 19.02 -37 17.04 -37 15 C-36.34 15 -35.68 15 -35 15 C-35 13.35 -35 11.7 -35 10 C-30.90666095 9.92591413 -26.81358067 9.8714296 -22.71972656 9.83520508 C-21.32675378 9.82010642 -19.93382862 9.79962556 -18.54101562 9.77368164 C-16.54057115 9.73734878 -14.53978173 9.72188808 -12.5390625 9.70703125 C-10.73236084 9.68346558 -10.73236084 9.68346558 -8.88916016 9.65942383 C-7.9357373 9.77181396 -6.98231445 9.8842041 -6 10 C-3.70986347 13.4352048 -3.82157027 14.985331 -4 19 C-3.34 19 -2.68 19 -2 19 C-2 19.66 -2 20.32 -2 21 C-3.98 21 -5.96 21 -8 21 C-8 22.65 -8 24.3 -8 26 C-1.4 26 5.2 26 12 26 C12 24.35 12 22.7 12 21 C11.38125 20.855625 10.7625 20.71125 10.125 20.5625 C8 20 8 20 6 19 C6 17.68 6 16.36 6 15 C5.34 15 4.68 15 4 15 C4 13.35 4 11.7 4 10 C3.34 10 2.68 10 2 10 C2 8.02 2 6.04 2 4 C1.34 4 0.68 4 0 4 C0 2.68 0 1.36 0 0 Z M-6 17 C-5 19 -5 19 -5 19 Z " fill="#606060" transform="translate(64,35)"/>
<path d="M0 0 C0.99 0 1.98 0 3 0 C3 0.99 3 1.98 3 3 C2.01 3 1.02 3 0 3 C-0.2475 3.639375 -0.495 4.27875 -0.75 4.9375 C-2 7 -2 7 -6 8 C-6 19.88 -6 31.76 -6 44 C-4.68 44 -3.36 44 -2 44 C-2 44.66 -2 45.32 -2 46 C-0.02 46.66 1.96 47.32 4 48 C4 48.99 4 49.98 4 51 C13.57 51 23.14 51 33 51 C33 50.01 33 49.02 33 48 C35.31 47.67 37.62 47.34 40 47 C40.33 46.01 40.66 45.02 41 44 C41.99 44 42.98 44 44 44 C44.495 43.01 44.495 43.01 45 42 C45 43.65 45 45.3 45 47 C44.360625 47.12375 43.72125 47.2475 43.0625 47.375 C42.381875 47.58125 41.70125 47.7875 41 48 C40.505 48.99 40.505 48.99 40 50 C39.01 50 38.02 50 37 50 C37 50.66 37 51.32 37 52 C33.12048899 53.80696928 30.04689574 54.25665818 25.78125 54.265625 C24.01201172 54.26949219 24.01201172 54.26949219 22.20703125 54.2734375 C20.98371094 54.26570313 19.76039063 54.25796875 18.5 54.25 C16.66501953 54.26160156 16.66501953 54.26160156 14.79296875 54.2734375 C13.61347656 54.27085938 12.43398437 54.26828125 11.21875 54.265625 C10.14560547 54.26336914 9.07246094 54.26111328 7.96679688 54.25878906 C4.94143148 53.99489116 2.73914151 53.27581661 0 52 C0 51.34 0 50.68 0 50 C-1.32 50 -2.64 50 -4 50 C-4 49.34 -4 48.68 -4 48 C-4.99 47.67 -5.98 47.34 -7 47 C-7 46.34 -7 45.68 -7 45 C-7.99 44.67 -8.98 44.34 -10 44 C-10.09897181 38.94634708 -10.17151603 33.89325976 -10.21972656 28.83886719 C-10.23982628 27.12001721 -10.26711089 25.40123548 -10.30175781 23.68261719 C-10.35035034 21.21011511 -10.37298435 18.7385179 -10.390625 16.265625 C-10.41127014 15.49881409 -10.43191528 14.73200317 -10.45318604 13.94195557 C-10.45466543 10.41418073 -10.30692374 8.4100475 -8.16308594 5.54589844 C-5.57293085 3.69478535 -3.0097485 3.0032495 0 2 C0 1.34 0 0.68 0 0 Z " fill="#5F5F5F" transform="translate(177,10)"/>
<path d="M0 0 C1.32 0 2.64 0 4 0 C4 1.98 4 3.96 4 6 C5.98 6 7.96 6 10 6 C10 19.2 10 32.4 10 46 C8.02 46 6.04 46 4 46 C4 47.65 4 49.3 4 51 C11.26 51 18.52 51 26 51 C26 49.35 26 47.7 26 46 C24.02 46 22.04 46 20 46 C20 45.01 20 44.02 20 43 C22.31 43 24.62 43 27 43 C27 43.66 27 44.32 27 45 C27.99 45 28.98 45 30 45 C30 47.31 30 49.62 30 52 C29.01 52 28.02 52 27 52 C27 52.66 27 53.32 27 54 C23.06256167 54.05797565 19.12523281 54.09358789 15.1875 54.125 C14.06794922 54.14175781 12.94839844 54.15851563 11.79492188 54.17578125 C10.72177734 54.18222656 9.64863281 54.18867187 8.54296875 54.1953125 C7.0583313 54.21102295 7.0583313 54.21102295 5.54370117 54.22705078 C3 54 3 54 0 52 C-0.375 48.5 -0.375 48.5 0 45 C3 43 3 43 7 43 C7 31.78 7 20.56 7 9 C4.69 9 2.38 9 0 9 C0 6.03 0 3.06 0 0 Z " fill="#828282" transform="translate(84,10)"/>
<path d="M0 0 C8.91 0 17.82 0 27 0 C27 1.32 27 2.64 27 4 C27.66 4.33 28.32 4.66 29 5 C28.34 5 27.68 5 27 5 C27 6.32 27 7.64 27 9 C26.34 9.66 25.68 10.32 25 11 C25.66 11.33 26.32 11.66 27 12 C27 13.32 27 14.64 27 16 C27.66 16 28.32 16 29 16 C29 17.65 29 19.3 29 21 C29.66 21 30.32 21 31 21 C31 22.32 31 23.64 31 25 C30.01 24.67 29.02 24.34 28 24 C28 23.01 28 22.02 28 21 C27.01 20.67 26.02 20.34 25 20 C24.29508733 17.67793475 23.62787571 15.34406932 23 13 C22.34 12.67 21.68 12.34 21 12 C21 10.02 21 8.04 21 6 C21.99 6 22.98 6 24 6 C24 5.01 24 4.02 24 3 C15.42 3 6.84 3 -2 3 C-1.67 3.66 -1.34 4.32 -1 5 C1.02463255 5.65213292 1.02463255 5.65213292 3 6 C2.27991594 10.60853797 0.68704061 14.67237409 -1 19 C-1.99 19 -2.98 19 -4 19 C-4 20.32 -4 21.64 -4 23 C-4.66 23 -5.32 23 -6 23 C-6.33 24.32 -6.66 25.64 -7 27 C-7.66 27 -8.32 27 -9 27 C-9 28.65 -9 30.3 -9 32 C-9.99 32 -10.98 32 -12 32 C-12 31.01 -12 30.02 -12 29 C-11.34 29 -10.68 29 -10 29 C-10 27.35 -10 25.7 -10 24 C-9.34 23.67 -8.68 23.34 -8 23 C-7.09274566 20.88672575 -7.09274566 20.88672575 -6.375 18.4375 C-6.11460938 17.61121094 -5.85421875 16.78492187 -5.5859375 15.93359375 C-5.39257812 15.29550781 -5.19921875 14.65742188 -5 14 C-4.34 14 -3.68 14 -3 14 C-3 12.35 -3 10.7 -3 9 C-2.01 9 -1.02 9 0 9 C0 8.34 0 7.68 0 7 C-0.99 6.67 -1.98 6.34 -3 6 C-3 4.68 -3 3.36 -3 2 C-2.01 2 -1.02 2 0 2 C0 1.34 0 0.68 0 0 Z " fill="#D5D5D8" transform="translate(33,10)"/>
<path d="M0 0 C1.32 0 2.64 0 4 0 C4.09765625 6.15234375 4.09765625 6.15234375 4 8 C3 9 3 9 -0.0625 9.0625 C-1.031875 9.041875 -2.00125 9.02125 -3 9 C-2.98428955 10.25659424 -2.9685791 11.51318848 -2.95239258 12.80786133 C-2.89813817 17.46502282 -2.86366624 22.12215631 -2.83520508 26.77954102 C-2.82010821 28.79619034 -2.79962885 30.81280679 -2.77368164 32.8293457 C-2.73733789 35.72615671 -2.7202828 38.62253406 -2.70703125 41.51953125 C-2.69154739 42.42274612 -2.67606354 43.325961 -2.66011047 44.25654602 C-2.65988388 45.09719101 -2.65965729 45.937836 -2.65942383 46.80395508 C-2.65276199 47.54341873 -2.64610016 48.28288239 -2.63923645 49.04475403 C-3.11124209 51.60290361 -3.91584543 52.47426429 -6 54 C-8.81127043 54.21714241 -11.3883345 54.28284276 -14.1875 54.1875 C-14.93708984 54.17396484 -15.68667969 54.16042969 -16.45898438 54.14648438 C-18.30629767 54.11118539 -20.15324066 54.05737917 -22 54 C-22.66 52.68 -23.32 51.36 -24 50 C-24.66 50 -25.32 50 -26 50 C-26 49.01 -26 48.02 -26 47 C-26.66 47 -27.32 47 -28 47 C-28.66 45.35 -29.32 43.7 -30 42 C-28.0625 42.8125 -28.0625 42.8125 -26 44 C-25.67 44.99 -25.34 45.98 -25 47 C-24.34 47 -23.68 47 -23 47 C-23 48.32 -23 49.64 -23 51 C-17.39 51 -11.78 51 -6 51 C-6 36.15 -6 21.3 -6 6 C-4.02 6 -2.04 6 0 6 C0 4.02 0 2.04 0 0 Z " fill="#3B3B3B" transform="translate(155,10)"/>
<path d="M0 0 C1.65 0 3.3 0 5 0 C4.67 1.98 4.34 3.96 4 6 C5.98 6 7.96 6 10 6 C10 17.55 10 29.1 10 41 C8.35 41 6.7 41 5 41 C2 35.375 2 35.375 2 32 C1.01 32 0.02 32 -1 32 C-1 31.01 -1 30.02 -1 29 C-1.99 28.67 -2.98 28.34 -4 28 C-4.33 26.02 -4.66 24.04 -5 22 C-5.66 22 -6.32 22 -7 22 C-7.33 20.02 -7.66 18.04 -8 16 C-7.34 16 -6.68 16 -6 16 C-6 16.66 -6 17.32 -6 18 C-5.34 18 -4.68 18 -4 18 C-4 19.32 -4 20.64 -4 22 C-3.34 22 -2.68 22 -2 22 C-2 22.99 -2 23.98 -2 25 C-1.01 25.33 -0.02 25.66 1 26 C1 26.66 1 27.32 1 28 C1.66 28 2.32 28 3 28 C3 29.32 3 30.64 3 32 C3.66 32 4.32 32 5 32 C5 32.66 5 33.32 5 34 C5.66 34 6.32 34 7 34 C7 25.75 7 17.5 7 9 C4.69 9 2.38 9 0 9 C0 6.03 0 3.06 0 0 Z " fill="#9F9F9F" transform="translate(129,10)"/>
<path d="M0 0 C1.32 0 2.64 0 4 0 C4 0.66 4 1.32 4 2 C4.66 2 5.32 2 6 2 C6 2.99 6 3.98 6 5 C6.66 5 7.32 5 8 5 C8.66 7.31 9.32 9.62 10 12 C10.66 12 11.32 12 12 12 C12 12.99 12 13.98 12 15 C12.99 15 13.98 15 15 15 C15 15.99 15 16.98 15 18 C15.99 18 16.98 18 18 18 C18.86916887 19.40751221 19.71985149 20.8264521 20.5625 22.25 C21.03816406 23.03890625 21.51382813 23.8278125 22.00390625 24.640625 C23.13022151 27.30844625 23.0169313 28.34501768 22 31 C20 29.75 20 29.75 18 28 C18 26.68 18 25.36 18 24 C17.34 24 16.68 24 16 24 C14.78125 22.5390625 14.78125 22.5390625 13.5 20.625 C12.07753774 18.51732726 10.80845027 16.80845027 9 15 C9 14.01 9 13.02 9 12 C8.34 12 7.68 12 7 12 C6.01 10.02 5.02 8.04 4 6 C3.97494385 6.80219971 3.9498877 7.60439941 3.92407227 8.4309082 C3.80817957 12.05827074 3.68542249 15.68536917 3.5625 19.3125 C3.50352539 21.20645508 3.50352539 21.20645508 3.44335938 23.13867188 C3.40146484 24.34716797 3.35957031 25.55566406 3.31640625 26.80078125 C3.27974854 27.91622314 3.24309082 29.03166504 3.20532227 30.1809082 C3 33 3 33 2 36 C3.98 36 5.96 36 8 36 C8 37.65 8 39.3 8 41 C7.01 40.67 6.02 40.34 5 40 C5.66 40 6.32 40 7 40 C7 39.01 7 38.02 7 37 C6.030625 37.020625 5.06125 37.04125 4.0625 37.0625 C1 37 1 37 0 36 C-0.08855161 33.3337397 -0.11524673 30.69352886 -0.09765625 28.02734375 C-0.0962413 27.22970108 -0.09482635 26.43205841 -0.09336853 25.61024475 C-0.08775316 23.05262565 -0.07519812 20.49509282 -0.0625 17.9375 C-0.05748698 16.20768355 -0.05292373 14.47786574 -0.04882812 12.74804688 C-0.03777875 8.49866447 -0.02050386 4.24934688 0 0 Z " fill="#CBCBCB" transform="translate(102,20)"/>
<path d="M0 0 C0.99 0 1.98 0 3 0 C2.33333333 2.66666667 1.66666667 5.33333333 1 8 C0.34 8 -0.32 8 -1 8 C-1 9.65 -1 11.3 -1 13 C-2.32 13 -3.64 13 -5 13 C-5 13.99 -5 14.98 -5 16 C1.6 16.33 8.2 16.66 15 17 C15 15.35 15 13.7 15 12 C12.69 12 10.38 12 8 12 C8 10.02 8 8.04 8 6 C8.66 6 9.32 6 10 6 C10 4.35 10 2.7 10 1 C17.92 1 25.84 1 34 1 C34 1.33 34 1.66 34 2 C26.74 2.33 19.48 2.66 12 3 C11.67 4.32 11.34 5.64 11 7 C10.34 7 9.68 7 9 7 C9 8.32 9 9.64 9 11 C11.31 11 13.62 11 16 11 C17.125 16.625 17.125 16.625 16 20 C7.75 20 -0.5 20 -9 20 C-10.125 12.125 -10.125 12.125 -9 9 C-7.02 8.67 -5.04 8.34 -3 8 C-2.67 6.68 -2.34 5.36 -2 4 C-1.34 4 -0.68 4 0 4 C0 2.68 0 1.36 0 0 Z " fill="#A4A4A4" transform="translate(19,44)"/>
<path d="M0 0 C10.89 0 21.78 0 33 0 C33 0.66 33 1.32 33 2 C34.32 2 35.64 2 37 2 C39 4 39 4 40 6 C40.66 6 41.32 6 42 6 C42.02686553 7.97909398 42.04633375 9.95828971 42.0625 11.9375 C42.07410156 13.03964844 42.08570313 14.14179688 42.09765625 15.27734375 C42 18 42 18 41 19 C39.31391034 19.07205511 37.62499341 19.08386068 35.9375 19.0625 C35.01839844 19.05347656 34.09929687 19.04445313 33.15234375 19.03515625 C32.44207031 19.02355469 31.73179687 19.01195313 31 19 C31 18.67 31 18.34 31 18 C32.134375 17.855625 33.26875 17.71125 34.4375 17.5625 C37.80777201 17.38828522 37.80777201 17.38828522 39 16 C39.07148199 14.64756083 39.08399454 13.29165633 39.0625 11.9375 C39.041875 10.638125 39.02125 9.33875 39 8 C37.02 7.67 35.04 7.34 33 7 C32.505 5.515 32.505 5.515 32 4 C20.78 4 9.56 4 -2 4 C-2 4.66 -2 5.32 -2 6 C-2.66 5.67 -3.32 5.34 -4 5 C-3.67 4.34 -3.34 3.68 -3 3 C-2.01 3 -1.02 3 0 3 C0 2.01 0 1.02 0 0 Z " fill="#DADADA" transform="translate(180,10)"/>
<path d="M0 0 C3.81248426 -0.02887236 7.6249407 -0.04675492 11.4375 -0.0625 C12.52611328 -0.07087891 13.61472656 -0.07925781 14.73632812 -0.08789062 C15.77080078 -0.09111328 16.80527344 -0.09433594 17.87109375 -0.09765625 C18.82943115 -0.10289307 19.78776855 -0.10812988 20.77514648 -0.11352539 C23 0 23 0 24 1 C24.04080783 2.99958364 24.04254356 5.00045254 24 7 C23.67 6.01 23.34 5.02 23 4 C15.41 4 7.82 4 0 4 C0 5.65 0 7.3 0 9 C4.29 9 8.58 9 13 9 C12.67 9.99 12.34 10.98 12 12 C7.71 12 3.42 12 -1 12 C-1 11.34 -1 10.68 -1 10 C-1.99 9.67 -2.98 9.34 -4 9 C-4 7.02 -4 5.04 -4 3 C-3.01 3 -2.02 3 -1 3 C-0.67 2.01 -0.34 1.02 0 0 Z " fill="#676767" transform="translate(198,32)"/>
<path d="M0 0 C0.99 0.33 1.98 0.66 3 1 C2.01 2.485 2.01 2.485 1 4 C0.72289637 7.10479949 0.72289637 7.10479949 0.8046875 10.63671875 C0.81113281 11.93544922 0.81757813 13.23417969 0.82421875 14.57226562 C0.8409294 15.94401307 0.85785929 17.31575786 0.875 18.6875 C0.88503326 20.07095718 0.89415851 21.45442127 0.90234375 22.83789062 C0.92594963 26.22533457 0.96182117 29.61268895 1 33 C8.26 33.33 15.52 33.66 23 34 C23.33 33.01 23.66 32.02 24 31 C24.99 31.33 25.98 31.66 27 32 C26.67 32.99 26.34 33.98 26 35 C23.05868109 35.98043964 21.17498335 36.11621202 18.11328125 36.09765625 C17.17548828 36.09443359 16.23769531 36.09121094 15.27148438 36.08789062 C13.80678711 36.07532227 13.80678711 36.07532227 12.3125 36.0625 C10.83040039 36.05573242 10.83040039 36.05573242 9.31835938 36.04882812 C6.87884526 36.03704303 4.43945311 36.02059011 2 36 C2 35.34 2 34.68 2 34 C0.68 33.67 -0.64 33.34 -2 33 C-2 22.77 -2 12.54 -2 2 C-1.34 2 -0.68 2 0 2 C0 1.34 0 0.68 0 0 Z " fill="#383838" transform="translate(183,19)"/>
<path d="M0 0 C7.59 0 15.18 0 23 0 C24.12589491 3.37768474 24.13294275 6.00812072 24.125 9.5625 C24.12886719 11.29693359 24.12886719 11.29693359 24.1328125 13.06640625 C24 16 24 16 23 18 C22.01 18.33 21.02 18.66 20 19 C19.67 19.66 19.34 20.32 19 21 C18.01 20.67 17.02 20.34 16 20 C16.66 19.34 17.32 18.68 18 18 C18.3074891 15.09335779 18.5110662 12.28814155 18.625 9.375 C18.810625 5.229375 18.810625 5.229375 19 1 C13.06 1 7.12 1 1 1 C1.33 1.66 1.66 2.32 2 3 C4.8159849 3.46898963 4.8159849 3.46898963 8.0625 3.625 C9.71958984 3.73714844 9.71958984 3.73714844 11.41015625 3.8515625 C12.26480469 3.90054688 13.11945313 3.94953125 14 4 C15.51708428 13.41002278 15.51708428 13.41002278 13 18 C12.34 17.67 11.68 17.34 11 17 C11.66 13.04 12.32 9.08 13 5 C8.71 5 4.42 5 0 5 C0 3.35 0 1.7 0 0 Z " fill="#E5E5E5" transform="translate(198,36)"/>
<path d="M0 0 C3.77068832 -0.086985 7.54111932 -0.14038579 11.3125 -0.1875 C12.38435547 -0.21263672 13.45621094 -0.23777344 14.56054688 -0.26367188 C15.58857422 -0.27333984 16.61660156 -0.28300781 17.67578125 -0.29296875 C19.0975769 -0.31653442 19.0975769 -0.31653442 20.5480957 -0.34057617 C23 0 23 0 24.83276367 1.33081055 C26 3 26 3 26 6 C26.66 6 27.32 6 28 6 C28 6.99 28 7.98 28 9 C28.66 9 29.32 9 30 9 C31.625 11.5 31.625 11.5 33 14 C30.525 13.505 30.525 13.505 28 13 C27.67 12.01 27.34 11.02 27 10 C26.34 10 25.68 10 25 10 C25 8.68 25 7.36 25 6 C20.64667264 5.15976812 16.55557481 4.89229005 12.125 4.9375 C10.97257812 4.94652344 9.82015625 4.95554687 8.6328125 4.96484375 C7.76398438 4.97644531 6.89515625 4.98804688 6 5 C6 5.33 6 5.66 6 6 C4.02 6 2.04 6 0 6 C0 4.02 0 2.04 0 0 Z " fill="#E0E0E0" transform="translate(88,10)"/>
<path d="M0 0 C0.99 0.33 1.98 0.66 3 1 C3 2.32 3 3.64 3 5 C3.99 5 4.98 5 6 5 C7.73734147 8.80043446 8 10.59714577 8 15 C1.4 15 -5.2 15 -12 15 C-12 13.35 -12 11.7 -12 10 C-11.34 10 -10.68 10 -10 10 C-10 9.01 -10 8.02 -10 7 C-8.68 7.33 -7.36 7.66 -6 8 C-6 8.66 -6 9.32 -6 10 C-6.99 10.495 -6.99 10.495 -8 11 C-8.33 11.99 -8.66 12.98 -9 14 C-8.34 14 -7.68 14 -7 14 C-7 13.34 -7 12.68 -7 12 C-3.37 12 0.26 12 4 12 C4 11.01 4 10.02 4 9 C3.34 9 2.68 9 2 9 C2 7.35 2 5.7 2 4 C1.34 4 0.68 4 0 4 C0 2.68 0 1.36 0 0 Z " fill="#929292" transform="translate(46,25)"/>
<path d="M0 0 C1.22976562 0.00580078 1.22976562 0.00580078 2.484375 0.01171875 C3.74121094 0.04845703 3.74121094 0.04845703 5.0234375 0.0859375 C5.8690625 0.08722656 6.7146875 0.08851562 7.5859375 0.08984375 C11.73253125 0.14870707 14.79548687 0.20525463 18.3984375 2.4609375 C19.1484375 4.5859375 19.1484375 4.5859375 19.3984375 6.4609375 C18.0784375 6.1309375 16.7584375 5.8009375 15.3984375 5.4609375 C15.3984375 4.8009375 15.3984375 4.1409375 15.3984375 3.4609375 C14.84381836 3.49646729 14.28919922 3.53199707 13.71777344 3.56860352 C11.19501477 3.72660565 8.67178289 3.87511313 6.1484375 4.0234375 C5.27574219 4.07951172 4.40304688 4.13558594 3.50390625 4.19335938 C2.65957031 4.24169922 1.81523437 4.29003906 0.9453125 4.33984375 C0.17026367 4.3869751 -0.60478516 4.43410645 -1.40332031 4.48266602 C-3.63268835 4.46062984 -5.47054817 4.0913272 -7.6015625 3.4609375 C-7.6015625 4.1209375 -7.6015625 4.7809375 -7.6015625 5.4609375 C-8.2615625 5.4609375 -8.9215625 5.4609375 -9.6015625 5.4609375 C-9.6015625 15.6909375 -9.6015625 25.9209375 -9.6015625 36.4609375 C-9.9315625 36.4609375 -10.2615625 36.4609375 -10.6015625 36.4609375 C-10.75011203 31.97702714 -10.85886554 27.49442632 -10.93115234 23.00878906 C-10.96128927 21.48379567 -11.00220858 19.95897513 -11.05419922 18.43457031 C-11.12716743 16.23980109 -11.1610439 14.04732499 -11.1875 11.8515625 C-11.21846771 11.1722467 -11.24943542 10.49293091 -11.28134155 9.79302979 C-11.28271484 7.85253906 -11.28271484 7.85253906 -10.6015625 4.4609375 C-7.22935415 1.47626357 -4.51842497 -0.05023756 0 0 Z " fill="#919193" transform="translate(190.6015625,15.5390625)"/>
<path d="M0 0 C2.31 0 4.62 0 7 0 C7 0.66 7 1.32 7 2 C7.99 2 8.98 2 10 2 C10 4.31 10 6.62 10 9 C9.01 9 8.02 9 7 9 C7 9.66 7 10.32 7 11 C-0.92 11 -8.84 11 -17 11 C-17.33 10.34 -17.66 9.68 -18 9 C-9.98340366 7.87486367 -2.07861415 7.90420616 6 8 C6 6.35 6 4.7 6 3 C4.02 3 2.04 3 0 3 C0 2.01 0 1.02 0 0 Z " fill="#404040" transform="translate(104,53)"/>
<path d="M0 0 C0 12.54 0 25.08 0 38 C-0.99 37.67 -1.98 37.34 -3 37 C-3 25.12 -3 13.24 -3 1 C-1 0 -1 0 0 0 Z " fill="#202020" transform="translate(170,17)"/>
<path d="M0 0 C0.99 0 1.98 0 3 0 C3 0.99 3 1.98 3 3 C2.01 3 1.02 3 0 3 C-0.2475 3.639375 -0.495 4.27875 -0.75 4.9375 C-2 7 -2 7 -6 8 C-6 19.88 -6 31.76 -6 44 C-4.68 44 -3.36 44 -2 44 C-2 44.66 -2 45.32 -2 46 C-1.34 46 -0.68 46 0 46 C0 46.99 0 47.98 0 49 C0.99 49 1.98 49 3 49 C3 49.99 3 50.98 3 52 C2.01 52 1.02 52 0 52 C0 51.34 0 50.68 0 50 C-1.32 50 -2.64 50 -4 50 C-4 49.34 -4 48.68 -4 48 C-4.99 47.67 -5.98 47.34 -7 47 C-7 33.14 -7 19.28 -7 5 C-3 3 -3 3 0 2 C0 1.34 0 0.68 0 0 Z " fill="#AFAFAF" transform="translate(177,10)"/>
<path d="M0 0 C1.32 0.33 2.64 0.66 4 1 C4 1.99 4 2.98 4 4 C4.66 4 5.32 4 6 4 C6.66 6.31 7.32 8.62 8 11 C8.66 11 9.32 11 10 11 C10 11.99 10 12.98 10 14 C10.99 14 11.98 14 13 14 C13 14.99 13 15.98 13 17 C13.99 17 14.98 17 16 17 C16.86916887 18.40751221 17.71985149 19.8264521 18.5625 21.25 C19.03816406 22.03890625 19.51382813 22.8278125 20.00390625 23.640625 C21.13022151 26.30844625 21.0169313 27.34501768 20 30 C18 28.75 18 28.75 16 27 C16 25.68 16 24.36 16 23 C15.34 23 14.68 23 14 23 C12.78125 21.5390625 12.78125 21.5390625 11.5 19.625 C10.07753774 17.51732726 8.80845027 15.80845027 7 14 C7 13.01 7 12.02 7 11 C6.34 11 5.68 11 5 11 C3.7109375 9.35546875 3.7109375 9.35546875 2.375 7.1875 C1.92898437 6.47980469 1.48296875 5.77210937 1.0234375 5.04296875 C0 3 0 3 0 0 Z " fill="#919191" transform="translate(104,21)"/>
<path d="M0 0 C0.66 0.33 1.32 0.66 2 1 C2 2.65 2 4.3 2 6 C-1.3 6.33 -4.6 6.66 -8 7 C-3.71 7.33 0.58 7.66 5 8 C4.67 8.66 4.34 9.32 4 10 C-9.86 9.505 -9.86 9.505 -24 9 C-24 8.67 -24 8.34 -24 8 C-22.02 7.67 -20.04 7.34 -18 7 C-18.99 6.67 -19.98 6.34 -21 6 C-21 4.35 -21 2.7 -21 1 C-20.67 1.99 -20.34 2.98 -20 4 C-13.4 4 -6.8 4 0 4 C0 2.68 0 1.36 0 0 Z " fill="#E5E5E5" transform="translate(54,36)"/>
<path d="M0 0 C8.58 0 17.16 0 26 0 C25.67 0.99 25.34 1.98 25 3 C17.41 3 9.82 3 2 3 C1.34 4.32 0.68 5.64 0 7 C1.32 7 2.64 7 4 7 C4 7.66 4 8.32 4 9 C1.69 9 -0.62 9 -3 9 C-3 7.68 -3 6.36 -3 5 C-2.34 5 -1.68 5 -1 5 C-0.67 3.35 -0.34 1.7 0 0 Z " fill="#2F2F31" transform="translate(31,46)"/>
<path d="M0 0 C7.875 0.875 7.875 0.875 9 2 C9.08858646 4.73894085 9.11523479 7.4525327 9.09765625 10.19140625 C9.0962413 11.01124496 9.09482635 11.83108368 9.09336853 12.67576599 C9.08775289 15.30471382 9.07519779 17.93357773 9.0625 20.5625 C9.05748701 22.34049357 9.05292376 24.11848846 9.04882812 25.89648438 C9.03777839 30.26435545 9.02050331 34.63216348 9 39 C6.69 39 4.38 39 2 39 C2.33 38.34 2.66 37.68 3 37 C4.32 37 5.64 37 7 37 C7 25.78 7 14.56 7 3 C4.69 3 2.38 3 0 3 C0 2.01 0 1.02 0 0 Z " fill="#3D3D3D" transform="translate(84,16)"/>
<path d="M0 0 C1.65 0 3.3 0 5 0 C5.33 1.65 5.66 3.3 6 5 C6.66 5 7.32 5 8 5 C8.33 7.31 8.66 9.62 9 12 C8.34 12 7.68 12 7 12 C6.896875 11.38125 6.79375 10.7625 6.6875 10.125 C6.12474627 7.63473516 6.12474627 7.63473516 3 6 C2.67 6.66 2.34 7.32 2 8 C1.34 8 0.68 8 0 8 C0 9.32 0 10.64 0 12 C-0.66 12 -1.32 12 -2 12 C-2.33 12.99 -2.66 13.98 -3 15 C-3.99 14.67 -4.98 14.34 -6 14 C-5.34 11.69 -4.68 9.38 -4 7 C-3.34 7 -2.68 7 -2 7 C-1.855625 6.21625 -1.71125 5.4325 -1.5625 4.625 C-1 2 -1 2 0 0 Z " fill="#CECECE" transform="translate(42,18)"/>
<path d="M0 0 C7.57060151 -0.10646158 15.12486299 -0.04774958 22.6875 0.3125 C23.37005859 0.33497803 24.05261719 0.35745605 24.75585938 0.38061523 C29.5790695 0.64783077 29.5790695 0.64783077 31.76953125 2.48046875 C32.17558594 2.98191406 32.58164063 3.48335937 33 4 C33.99 4.33 34.98 4.66 36 5 C36 7.31 36 9.62 36 12 C34.68 11.67 33.36 11.34 32 11 C32 9.68 32 8.36 32 7 C31.01 7 30.02 7 29 7 C29 6.01 29 5.02 29 4 C27.68 4 26.36 4 25 4 C25 3.34 25 2.68 25 2 C24.38479492 2.01047363 23.76958984 2.02094727 23.13574219 2.03173828 C20.34053657 2.07338695 17.54539634 2.09935416 14.75 2.125 C13.29787109 2.15013672 13.29787109 2.15013672 11.81640625 2.17578125 C10.41455078 2.18544922 10.41455078 2.18544922 8.984375 2.1953125 C8.12553711 2.20578613 7.26669922 2.21625977 6.38183594 2.22705078 C3.82096404 1.98293323 2.20488971 1.28990512 0 0 Z " fill="#F7F7F7" transform="translate(182,13)"/>
<path d="M0 0 C0.33 1.32 0.66 2.64 1 4 C-0.98 4 -2.96 4 -5 4 C-5 5.65 -5 7.3 -5 9 C2.92 9.33 10.84 9.66 19 10 C19 10.66 19 11.32 19 12 C10.75 12 2.5 12 -6 12 C-7.125 4.125 -7.125 4.125 -6 1 C-4.02 0.67 -2.04 0.34 0 0 Z " fill="#0D0D0D" transform="translate(16,52)"/>
<path d="M0 0 C2.64 0.33 5.28 0.66 8 1 C8 11.89 8 22.78 8 34 C7.34 33.67 6.68 33.34 6 33 C6 32.01 6 31.02 6 30 C5.34 30 4.68 30 4 30 C4 29.34 4 28.68 4 28 C4.66 28 5.32 28 6 28 C6 19.75 6 11.5 6 3 C3.69 3 1.38 3 -1 3 C-0.67 2.01 -0.34 1.02 0 0 Z " fill="#101010" transform="translate(130,16)"/>
<path d="M0 0 C3 1 3 1 4.1875 2.75 C5.10819096 5.29960574 5.14948718 7.30923081 5 10 C5.66 10 6.32 10 7 10 C8.25664978 12.90600261 9 14.79604584 9 18 C9.78375 18.144375 10.5675 18.28875 11.375 18.4375 C14 19 14 19 16 20 C16 22.31 16 24.62 16 27 C15.34 27 14.68 27 14 27 C13.67 25.02 13.34 23.04 13 21 C10.69 20.34 8.38 19.68 6 19 C6 17.68 6 16.36 6 15 C5.34 15 4.68 15 4 15 C4 13.35 4 11.7 4 10 C3.34 10 2.68 10 2 10 C2 8.02 2 6.04 2 4 C1.34 4 0.68 4 0 4 C0 2.68 0 1.36 0 0 Z " fill="#414141" transform="translate(64,35)"/>
<path d="M0 0 C0.99 0.33 1.98 0.66 3 1 C2.34 1 1.68 1 1 1 C1 2.32 1 3.64 1 5 C0.34 5.66 -0.32 6.32 -1 7 C-0.34 7.33 0.32 7.66 1 8 C1 9.32 1 10.64 1 12 C1.66 12 2.32 12 3 12 C3 13.65 3 15.3 3 17 C3.66 17 4.32 17 5 17 C5 18.32 5 19.64 5 21 C4.01 20.67 3.02 20.34 2 20 C2 19.01 2 18.02 2 17 C1.01 16.67 0.02 16.34 -1 16 C-1.70491267 13.67793475 -2.37212429 11.34406932 -3 9 C-3.66 8.67 -4.32 8.34 -5 8 C-5 6.02 -5 4.04 -5 2 C-3.35 2 -1.7 2 0 2 C0 1.34 0 0.68 0 0 Z " fill="#969696" transform="translate(59,14)"/>
<path d="M0 0 C0.33 0 0.66 0 1 0 C1 4.95 1 9.9 1 15 C2.65 15.33 4.3 15.66 6 16 C6 16.66 6 17.32 6 18 C13.26 17.67 20.52 17.34 28 17 C28 17.99 28 18.98 28 20 C20.41 20 12.82 20 5 20 C4.67 19.01 4.34 18.02 4 17 C2.68 17 1.36 17 0 17 C0 11.39 0 5.78 0 0 Z " fill="#C8C8C8" transform="translate(179,37)"/>
<path d="M0 0 C0.99 0 1.98 0 3 0 C3 0.66 3 1.32 3 2 C4.32 2 5.64 2 7 2 C9 4 9 4 10 6 C10.66 6 11.32 6 12 6 C12.02686553 7.97909398 12.04633375 9.95828971 12.0625 11.9375 C12.07410156 13.03964844 12.08570313 14.14179688 12.09765625 15.27734375 C12 18 12 18 11 19 C9.31391034 19.07205511 7.62499341 19.08386068 5.9375 19.0625 C5.01839844 19.05347656 4.09929687 19.04445313 3.15234375 19.03515625 C2.44207031 19.02355469 1.73179687 19.01195313 1 19 C1 18.67 1 18.34 1 18 C2.134375 17.855625 3.26875 17.71125 4.4375 17.5625 C7.80777201 17.38828522 7.80777201 17.38828522 9 16 C8.87368806 11.91517939 8.87368806 11.91517939 8 8 C5.55690423 6.08255407 5.55690423 6.08255407 3 5 C3 4.34 3 3.68 3 3 C2.01 3 1.02 3 0 3 C0 2.01 0 1.02 0 0 Z " fill="#8D8D8D" transform="translate(210,10)"/>
<path d="M0 0 C7.59 0 15.18 0 23 0 C23.33 0.99 23.66 1.98 24 3 C15.75 3 7.5 3 -1 3 C-0.67 2.01 -0.34 1.02 0 0 Z " fill="#282828" transform="translate(198,32)"/>
<path d="M0 0 C2.97 0.495 2.97 0.495 6 1 C6 1.99 6 2.98 6 4 C6.99 4 7.98 4 9 4 C9 5.32 9 6.64 9 8 C10.32 8.33 11.64 8.66 13 9 C13 6.69 13 4.38 13 2 C15.14915785 5.22373677 15.38286803 6.26703674 15 10 C13 12 13 12 11.0546875 12.1953125 C9.03645833 12.13020833 7.01822917 12.06510417 5 12 C4.67 8.7 4.34 5.4 4 2 C2.68 1.67 1.36 1.34 0 1 C0 0.67 0 0.34 0 0 Z " fill="#C0C0C0" transform="translate(205,16)"/>
<path d="M0 0 C0.33 0 0.66 0 1 0 C1 14.85 1 29.7 1 45 C-4.61 45 -10.22 45 -16 45 C-15.67 43.68 -15.34 42.36 -15 41 C-14.34 41.33 -13.68 41.66 -13 42 C-13 42.66 -13 43.32 -13 44 C-6.565 43.505 -6.565 43.505 0 43 C0 28.81 0 14.62 0 0 Z " fill="#CDCDCD" transform="translate(148,16)"/>
<path d="M0 0 C1.65 0 3.3 0 5 0 C4.67 1.98 4.34 3.96 4 6 C5.98 6 7.96 6 10 6 C10 17.55 10 29.1 10 41 C9.01 41 8.02 41 7 41 C7.33 40.34 7.66 39.68 8 39 C8.15608023 36.59439727 8.25804458 34.21297228 8.31640625 31.8046875 C8.33718735 31.09724396 8.35796844 30.38980042 8.37937927 29.66091919 C8.44481078 27.39904575 8.50372974 25.13705538 8.5625 22.875 C8.60569133 21.34243578 8.64930582 19.80988343 8.69335938 18.27734375 C8.80048555 14.51834927 8.9017709 10.75923708 9 7 C6.03 7 3.06 7 0 7 C0 4.69 0 2.38 0 0 Z " fill="#868686" transform="translate(129,10)"/>
<path d="M0 0 C0.66 0 1.32 0 2 0 C2 1.65 2 3.3 2 5 C2.66 5 3.32 5 4 5 C4 6.32 4 7.64 4 9 C5.98 9.66 7.96 10.32 10 11 C10 12.65 10 14.3 10 16 C3.4 16 -3.2 16 -10 16 C-10 14.35 -10 12.7 -10 11 C-8.02 11 -6.04 11 -4 11 C-4 10.34 -4 9.68 -4 9 C-4.66 9 -5.32 9 -6 9 C-6 7.35 -6 5.7 -6 4 C-5.67 4.99 -5.34 5.98 -5 7 C-4.34 7 -3.68 7 -3 7 C-3 8.65 -3 10.3 -3 12 C-4.98 12 -6.96 12 -9 12 C-9 12.99 -9 13.98 -9 15 C-3.06 15 2.88 15 9 15 C9 14.01 9 13.02 9 12 C8.236875 11.938125 7.47375 11.87625 6.6875 11.8125 C4 11 4 11 2.25 8.8125 C0.93029672 5.84316761 0.37416165 3.21779017 0 0 Z " fill="#D9D9D9" transform="translate(66,45)"/>
<path d="M0 0 C6.93 0 13.86 0 21 0 C21 0.99 21 1.98 21 3 C13.74 3 6.48 3 -1 3 C-0.67 2.01 -0.34 1.02 0 0 Z " fill="#DBDBDB" transform="translate(134,10)"/>
<path d="M0 0 C2.12438339 -0.08078641 4.2496323 -0.13909141 6.375 -0.1875 C7.55835938 -0.22230469 8.74171875 -0.25710937 9.9609375 -0.29296875 C11.46527344 -0.14794922 11.46527344 -0.14794922 13 0 C15.35119399 3.52679099 15.21443452 5.02879485 15.125 9.1875 C15.10695312 10.27417969 15.08890625 11.36085938 15.0703125 12.48046875 C15.03550781 13.72763672 15.03550781 13.72763672 15 15 C14.34 15 13.68 15 13 15 C12.67 15.66 12.34 16.32 12 17 C12.10828125 15.86111328 12.10828125 15.86111328 12.21875 14.69921875 C12.35796875 13.20841797 12.35796875 13.20841797 12.5 11.6875 C12.5928125 10.70136719 12.685625 9.71523438 12.78125 8.69921875 C13.04038857 5.95297861 13.04038857 5.95297861 13 3 C9.04 3 5.08 3 1 3 C0.67 2.01 0.34 1.02 0 0 Z " fill="#F0F0F0" transform="translate(199,37)"/>
<path d="M0 0 C0.99 0 1.98 0 3 0 C2.33333333 2.66666667 1.66666667 5.33333333 1 8 C0.34 8 -0.32 8 -1 8 C-1 9.65 -1 11.3 -1 13 C-2.32 13 -3.64 13 -5 13 C-5 13.99 -5 14.98 -5 16 C-3.02 16 -1.04 16 1 16 C1 16.33 1 16.66 1 17 C-1.97 17 -4.94 17 -8 17 C-8 15.35 -8 13.7 -8 12 C-6.02 12 -4.04 12 -2 12 C-2 9.36 -2 6.72 -2 4 C-1.34 4 -0.68 4 0 4 C0 2.68 0 1.36 0 0 Z " fill="#D1D1D1" transform="translate(19,44)"/>
<path d="M0 0 C3 0 3 0 4.6875 1.3125 C6 3 6 3 6 6 C6.66 6 7.32 6 8 6 C8 6.99 8 7.98 8 9 C8.66 9 9.32 9 10 9 C11.625 11.5 11.625 11.5 13 14 C11.35 13.67 9.7 13.34 8 13 C7.67 12.01 7.34 11.02 7 10 C6.34 10 5.68 10 5 10 C5 8.68 5 7.36 5 6 C4.360625 5.7525 3.72125 5.505 3.0625 5.25 C1 4 1 4 0.25 1.875 C0.1675 1.25625 0.085 0.6375 0 0 Z " fill="#666666" transform="translate(108,10)"/>
<path d="M0 0 C0.99 0 1.98 0 3 0 C2.41196203 3.02419525 1.77321882 6.01758453 1 9 C0.34 9 -0.32 9 -1 9 C-1.33 10.32 -1.66 11.64 -2 13 C-2.66 13 -3.32 13 -4 13 C-4 14.65 -4 16.3 -4 18 C-4.99 18 -5.98 18 -7 18 C-7 17.01 -7 16.02 -7 15 C-6.34 15 -5.68 15 -5 15 C-5 13.35 -5 11.7 -5 10 C-4.34 9.67 -3.68 9.34 -3 9 C-2.09274566 6.88672575 -2.09274566 6.88672575 -1.375 4.4375 C-0.98441406 3.19806641 -0.98441406 3.19806641 -0.5859375 1.93359375 C-0.39257812 1.29550781 -0.19921875 0.65742188 0 0 Z " fill="#7C7C7C" transform="translate(28,24)"/>
<path d="M0 0 C0.66 0 1.32 0 2 0 C3.12589491 3.37768474 3.13294275 6.00812072 3.125 9.5625 C3.12757813 10.71878906 3.13015625 11.87507813 3.1328125 13.06640625 C3 16 3 16 2 18 C1.34 18 0.68 18 0 18 C0 12.06 0 6.12 0 0 Z " fill="#CACACA" transform="translate(219,36)"/>
<path d="M0 0 C0.84755859 0.04833984 1.69511719 0.09667969 2.56835938 0.14648438 C3.44943359 0.20255859 4.33050781 0.25863281 5.23828125 0.31640625 C6.13095703 0.36861328 7.02363281 0.42082031 7.94335938 0.47460938 C10.14619685 0.60418805 12.34856998 0.73914871 14.55078125 0.87890625 C14.55078125 1.86890625 14.55078125 2.85890625 14.55078125 3.87890625 C12.24078125 3.87890625 9.93078125 3.87890625 7.55078125 3.87890625 C7.55078125 3.21890625 7.55078125 2.55890625 7.55078125 1.87890625 C3.92078125 1.87890625 0.29078125 1.87890625 -3.44921875 1.87890625 C-2.78921875 2.53890625 -2.12921875 3.19890625 -1.44921875 3.87890625 C-3.42921875 3.87890625 -5.40921875 3.87890625 -7.44921875 3.87890625 C-7.44921875 2.88890625 -7.44921875 1.89890625 -7.44921875 0.87890625 C-4.52252184 -0.09665939 -3.00860554 -0.18172785 0 0 Z " fill="#EAEAEA" transform="translate(140.44921875,12.12109375)"/>
<path d="M0 0 C1.32 0.33 2.64 0.66 4 1 C4 1.99 4 2.98 4 4 C4.66 4 5.32 4 6 4 C6.66 6.31 7.32 8.62 8 11 C8.66 11 9.32 11 10 11 C9.67 12.32 9.34 13.64 9 15 C8.34 14.67 7.68 14.34 7 14 C7 13.01 7 12.02 7 11 C6.34 11 5.68 11 5 11 C3.7109375 9.35546875 3.7109375 9.35546875 2.375 7.1875 C1.92898437 6.47980469 1.48296875 5.77210937 1.0234375 5.04296875 C0 3 0 3 0 0 Z " fill="#76767B" transform="translate(104,21)"/>
<path d="M0 0 C3.3 0 6.6 0 10 0 C10 0.33 10 0.66 10 1 C8.02 1 6.04 1 4 1 C4 2.65 4 4.3 4 6 C6.31 6 8.62 6 11 6 C11 6.33 11 6.66 11 7 C7.37 7 3.74 7 0 7 C0 4.69 0 2.38 0 0 Z " fill="#A1A1A1" transform="translate(84,55)"/>
<path d="M0 0 C0.66 0.33 1.32 0.66 2 1 C1.34 2.65 0.68 4.3 0 6 C-0.66 6 -1.32 6 -2 6 C-2.12503906 6.70640625 -2.25007813 7.4128125 -2.37890625 8.140625 C-3.02564237 11.11805164 -3.91058143 13.88237832 -4.9375 16.75 C-5.27652344 17.71421875 -5.61554687 18.6784375 -5.96484375 19.671875 C-7 22 -7 22 -9 23 C-9 21.68 -9 20.36 -9 19 C-8.34 19 -7.68 19 -7 19 C-6.67 15.7 -6.34 12.4 -6 9 C-5.01 9 -4.02 9 -3 9 C-3 7.35 -3 5.7 -3 4 C-2.34 4 -1.68 4 -1 4 C-0.67 2.68 -0.34 1.36 0 0 Z " fill="#D6D6D6" transform="translate(27,33)"/>
<path d="M0 0 C4.62 0 9.24 0 14 0 C15.42857143 9.57142857 15.42857143 9.57142857 13 14 C12.34 13.67 11.68 13.34 11 13 C11.66 9.04 12.32 5.08 13 1 C8.71 1 4.42 1 0 1 C0 0.67 0 0.34 0 0 Z " fill="#C7C7C7" transform="translate(198,40)"/>
<path d="M0 0 C0.99 0.33 1.98 0.66 3 1 C3.33 1.99 3.66 2.98 4 4 C4.66 4.33 5.32 4.66 6 5 C6 6.32 6 7.64 6 9 C6.66 9 7.32 9 8 9 C8 10.98 8 12.96 8 15 C4.48099901 12.75996366 3.19285707 10.82519821 1.75 6.9375 C1.41484375 6.05964844 1.0796875 5.18179688 0.734375 4.27734375 C0 2 0 2 0 0 Z " fill="#E5E5E5" transform="translate(58,30)"/>
<path d="M0 0 C8.58 0 17.16 0 26 0 C26 0.99 26 1.98 26 3 C25.01 2.67 24.02 2.34 23 2 C21.63905708 1.90873089 20.27415442 1.86934548 18.91015625 1.8671875 C18.12576172 1.86589844 17.34136719 1.86460938 16.53320312 1.86328125 C15.31020508 1.86908203 15.31020508 1.86908203 14.0625 1.875 C13.25103516 1.87113281 12.43957031 1.86726562 11.60351562 1.86328125 C10.42499023 1.86521484 10.42499023 1.86521484 9.22265625 1.8671875 C8.50859619 1.86831543 7.79453613 1.86944336 7.05883789 1.87060547 C4.93216104 2.00426357 3.04645477 2.42039658 1 3 C0.67 2.01 0.34 1.02 0 0 Z " fill="#EDEDED" transform="translate(31,13)"/>
<path d="M0 0 C0.66 0 1.32 0 2 0 C2.66 0.99 3.32 1.98 4 3 C4.680625 3.2475 5.36125 3.495 6.0625 3.75 C6.701875 4.1625 7.34125 4.575 8 5 C8.75 8.625 8.75 8.625 9 12 C9.66 12 10.32 12 11 12 C11 12.66 11 13.32 11 14 C10.01 14 9.02 14 8 14 C7.608125 13.154375 7.21625 12.30875 6.8125 11.4375 C5.42183518 8.80003223 4.05075254 6.57759724 2.3125 4.1875 C0 1 0 1 0 0 Z " fill="#C7C7C7" transform="translate(113,20)"/>
<path d="M0 0 C0.99 0 1.98 0 3 0 C3.09765625 6.15234375 3.09765625 6.15234375 3 8 C2 9 2 9 -1.5625 9.0625 C-2.696875 9.041875 -3.83125 9.02125 -5 9 C-5.33 8.34 -5.66 7.68 -6 7 C-4.02 7 -2.04 7 0 7 C0 4.69 0 2.38 0 0 Z " fill="#454545" transform="translate(156,10)"/>
<path d="M0 0 C0.99 0 1.98 0 3 0 C3 0.99 3 1.98 3 3 C2.01 3 1.02 3 0 3 C-0.2475 3.639375 -0.495 4.27875 -0.75 4.9375 C-2 7 -2 7 -4.0625 7.625 C-4.701875 7.74875 -5.34125 7.8725 -6 8 C-6.33 8.66 -6.66 9.32 -7 10 C-7 8.35 -7 6.7 -7 5 C-4.66785852 3.79371992 -2.50357861 2.8345262 0 2 C0 1.34 0 0.68 0 0 Z " fill="#686868" transform="translate(177,10)"/>
<path d="M0 0 C0.33 1.32 0.66 2.64 1 4 C-0.98 4 -2.96 4 -5 4 C-5 5.65 -5 7.3 -5 9 C-4.01 9.33 -3.02 9.66 -2 10 C-3.65 9.67 -5.3 9.34 -7 9 C-6.67 6.36 -6.34 3.72 -6 1 C-4.02 0.67 -2.04 0.34 0 0 Z " fill="#535353" transform="translate(16,52)"/>
<path d="M0 0 C0.99 0 1.98 0 3 0 C3 1.65 3 3.3 3 5 C1.02 5.99 1.02 5.99 -1 7 C-1 8.32 -1 9.64 -1 11 C-1.99 11 -2.98 11 -4 11 C-4 9.68 -4 8.36 -4 7 C-3.34 7 -2.68 7 -2 7 C-2 5.68 -2 4.36 -2 3 C-1.34 2.67 -0.68 2.34 0 2 C0 1.34 0 0.68 0 0 Z " fill="#7C7C7C" transform="translate(43,19)"/>
<path d="M0 0 C0.33 0 0.66 0 1 0 C1 1.65 1 3.3 1 5 C0.360625 5.12375 -0.27875 5.2475 -0.9375 5.375 C-1.9584375 5.684375 -1.9584375 5.684375 -3 6 C-3.33 6.66 -3.66 7.32 -4 8 C-4.99 8 -5.98 8 -7 8 C-7 8.66 -7 9.32 -7 10 C-7.66 10 -8.32 10 -9 10 C-9 9.01 -9 8.02 -9 7 C-8.34 7 -7.68 7 -7 7 C-7 6.34 -7 5.68 -7 5 C-6.01 5 -5.02 5 -4 5 C-3.67 4.01 -3.34 3.02 -3 2 C-2.01 2 -1.02 2 0 2 C0 1.34 0 0.68 0 0 Z " fill="#676767" transform="translate(221,52)"/>
<path d="M0 0 C0.99 0 1.98 0 3 0 C3 0.66 3 1.32 3 2 C4.32 2 5.64 2 7 2 C9 4 9 4 10 6 C10.66 6.33 11.32 6.66 12 7 C9.36 6.67 6.72 6.34 4 6 C3.67 5.01 3.34 4.02 3 3 C2.01 3 1.02 3 0 3 C0 2.01 0 1.02 0 0 Z " fill="#6B6B6B" transform="translate(210,10)"/>
<path d="M0 0 C2.14915785 3.22373677 2.38286803 4.26703674 2 8 C1.34 8.66 0.68 9.32 0 10 C-2.125 9.625 -2.125 9.625 -4 9 C-4.33 6.69 -4.66 4.38 -5 2 C-4.67 3.32 -4.34 4.64 -4 6 C-2.02 6.495 -2.02 6.495 0 7 C0 4.69 0 2.38 0 0 Z " fill="#DCDCDC" transform="translate(218,18)"/>
<path d="M0 0 C0.66 0 1.32 0 2 0 C1.49202991 4.3177458 0.80317221 8.03302114 -1 12 C-1.66 11.67 -2.32 11.34 -3 11 C-3 8.03 -3 5.06 -3 2 C-2.01 2 -1.02 2 0 2 C0 1.34 0 0.68 0 0 Z " fill="#A2A2A2" transform="translate(33,17)"/>
<path d="M0 0 C1.32 0 2.64 0 4 0 C4 1.98 4 3.96 4 6 C5.98 6 7.96 6 10 6 C10 6.33 10 6.66 10 7 C3.375 7.125 3.375 7.125 0 6 C0 4.02 0 2.04 0 0 Z " fill="#979797" transform="translate(84,10)"/>
<path d="M0 0 C0.33 0 0.66 0 1 0 C1 1.98 1 3.96 1 6 C3.31 6 5.62 6 8 6 C8 7.65 8 9.3 8 11 C6.35 11 4.7 11 3 11 C3.66 10.67 4.32 10.34 5 10 C5 9.01 5 8.02 5 7 C3.35 7 1.7 7 0 7 C-1.04449911 3.86650268 -0.93423645 3.01031744 0 0 Z " fill="#D8D8D8" transform="translate(26,50)"/>
<path d="M0 0 C2.375 -0.1875 2.375 -0.1875 5 0 C7.4294516 3.6441774 7.16179575 5.71241272 7 10 C5.68 10 4.36 10 3 10 C3.33 7.03 3.66 4.06 4 1 C2.68 0.67 1.36 0.34 0 0 Z M5 7 C6 9 6 9 6 9 Z " fill="#6E6E6E" transform="translate(53,45)"/>
<path d="M0 0 C0 0.66 0 1.32 0 2 C-4.62 2 -9.24 2 -14 2 C-14 1.34 -14 0.68 -14 0 C-12.2300132 -0.19532961 -10.45895721 -0.38098882 -8.6875 -0.5625 C-7.70136719 -0.66691406 -6.71523438 -0.77132812 -5.69921875 -0.87890625 C-3 -1 -3 -1 0 0 Z " fill="#141414" transform="translate(53,37)"/>
<path d="M0 0 C0.66 0 1.32 0 2 0 C2 0.66 2 1.32 2 2 C3.65 2 5.3 2 7 2 C7 2.66 7 3.32 7 4 C7.99 4 8.98 4 10 4 C10 4.99 10 5.98 10 7 C9.01 7 8.02 7 7 7 C7 6.34 7 5.68 7 5 C5.68 5 4.36 5 3 5 C3 4.34 3 3.68 3 3 C2.01 2.67 1.02 2.34 0 2 C0 1.34 0 0.68 0 0 Z " fill="#555555" transform="translate(170,55)"/>
<path d="M0 0 C1.9375 0.8125 1.9375 0.8125 4 2 C4.33 2.99 4.66 3.98 5 5 C5.66 5 6.32 5 7 5 C7 6.32 7 7.64 7 9 C7.66 9.33 8.32 9.66 9 10 C8.01 10 7.02 10 6 10 C6 9.34 6 8.68 6 8 C5.34 8 4.68 8 4 8 C4 7.01 4 6.02 4 5 C3.34 5 2.68 5 2 5 C1.34 3.35 0.68 1.7 0 0 Z " fill="#565656" transform="translate(125,52)"/>
<path d="M0 0 C0.99 0.33 1.98 0.66 3 1 C3 2.32 3 3.64 3 5 C3.66 5 4.32 5 5 5 C5 6.65 5 8.3 5 10 C4.01 9.67 3.02 9.34 2 9 C2 7.35 2 5.7 2 4 C1.34 4 0.68 4 0 4 C0 2.68 0 1.36 0 0 Z " fill="#606060" transform="translate(46,25)"/>
<path d="M0 0 C0.66 0 1.32 0 2 0 C2 0.99 2 1.98 2 3 C2.99 3.33 3.98 3.66 5 4 C5 4.66 5 5.32 5 6 C5.66 6 6.32 6 7 6 C7 6.99 7 7.98 7 9 C6.01 8.67 5.02 8.34 4 8 C4 7.34 4 6.68 4 6 C3.01 5.67 2.02 5.34 1 5 C0.67 3.35 0.34 1.7 0 0 Z " fill="#5F5F5F" transform="translate(125,32)"/>
<path d="M0 0 C0.99 0 1.98 0 3 0 C2 4 2 4 1 8 C0.01 8 -0.98 8 -2 8 C-2 6.68 -2 5.36 -2 4 C-1.34 4 -0.68 4 0 4 C0 2.68 0 1.36 0 0 Z " fill="#858585" transform="translate(19,44)"/>
<path d="M0 0 C0.99 0.33 1.98 0.66 3 1 C2.34 1 1.68 1 1 1 C1 2.32 1 3.64 1 5 C-0.65 5.33 -2.3 5.66 -4 6 C-4 4.68 -4 3.36 -4 2 C-2.68 2 -1.36 2 0 2 C0 1.34 0 0.68 0 0 Z " fill="#575757" transform="translate(59,14)"/>
<path d="M0 0 C0.99 0 1.98 0 3 0 C3 2.31 3 4.62 3 7 C2.01 7 1.02 7 0 7 C0 4.69 0 2.38 0 0 Z " fill="#2A2A2A" transform="translate(111,55)"/>
<path d="M0 0 C0.33 1.32 0.66 2.64 1 4 C0.34 4 -0.32 4 -1 4 C-1 5.65 -1 7.3 -1 9 C-1.99 9 -2.98 9 -4 9 C-4 8.01 -4 7.02 -4 6 C-3.34 6 -2.68 6 -2 6 C-2 4.35 -2 2.7 -2 1 C-1.34 0.67 -0.68 0.34 0 0 Z " fill="#616161" transform="translate(25,33)"/>
<path d="M0 0 C3.875 0.875 3.875 0.875 5 2 C5.04063832 3.66617115 5.042721 5.33388095 5 7 C4.01 6.67 3.02 6.34 2 6 C2 4.68 2 3.36 2 2 C1.34 2 0.68 2 0 2 C0 1.34 0 0.68 0 0 Z " fill="#6E6E6E" transform="translate(68,48)"/>
<path d="M0 0 C0.66 0 1.32 0 2 0 C2 1.65 2 3.3 2 5 C2.66 5 3.32 5 4 5 C4 6.32 4 7.64 4 9 C3.01 8.67 2.02 8.34 1 8 C0.67 5.36 0.34 2.72 0 0 Z " fill="#505050" transform="translate(60,26)"/>
<path d="M0 0 C2.64 0.33 5.28 0.66 8 1 C8 1.66 8 2.32 8 3 C5.03 3 2.06 3 -1 3 C-0.67 2.01 -0.34 1.02 0 0 Z " fill="#383838" transform="translate(130,16)"/>
<path d="M0 0 C0.66 0.33 1.32 0.66 2 1 C2 4.3 2 7.6 2 11 C1.34 11 0.68 11 0 11 C-0.33 11.66 -0.66 12.32 -1 13 C-0.9278125 12.22914062 -0.855625 11.45828125 -0.78125 10.6640625 C-0.64203125 9.15972656 -0.64203125 9.15972656 -0.5 7.625 C-0.4071875 6.62726562 -0.314375 5.62953125 -0.21875 4.6015625 C0.02792947 2.10296264 0.02792947 2.10296264 0 0 Z " fill="#DCDCDC" transform="translate(212,41)"/>
<path d="M0 0 C0.99 0 1.98 0 3 0 C3 0.66 3 1.32 3 2 C3.99 2 4.98 2 6 2 C6.33 3.65 6.66 5.3 7 7 C6.34 7 5.68 7 5 7 C3.7109375 5.46875 3.7109375 5.46875 2.375 3.5 C1.70597656 2.52546875 1.70597656 2.52546875 1.0234375 1.53125 C0.68570313 1.0259375 0.34796875 0.520625 0 0 Z " fill="#545454" transform="translate(113,37)"/>
<path d="M0 0 C0.99 0 1.98 0 3 0 C3 1.98 3 3.96 3 6 C2.01 6 1.02 6 0 6 C0 4.02 0 2.04 0 0 Z " fill="#313131" transform="translate(194,35)"/>
<path d="M0 0 C0.99 0.33 1.98 0.66 3 1 C3 2.32 3 3.64 3 5 C3.66 5 4.32 5 5 5 C5 6.98 5 8.96 5 11 C2.03947516 7.63576723 1.07710178 4.30840713 0 0 Z " fill="#B8B8B8" transform="translate(61,34)"/>
<path d="M0 0 C0.99 0 1.98 0 3 0 C3 1.98 3 3.96 3 6 C2.01 6.33 1.02 6.66 0 7 C0 4.69 0 2.38 0 0 Z " fill="#707070" transform="translate(129,10)"/>
<path d="M0 0 C1.32 0.33 2.64 0.66 4 1 C4 1.66 4 2.32 4 3 C1 5 1 5 -2 5 C-2 4.34 -2 3.68 -2 3 C-1.34 3 -0.68 3 0 3 C0 2.01 0 1.02 0 0 Z " fill="#898989" transform="translate(36,32)"/>
<path d="M0 0 C0.33 0.66 0.66 1.32 1 2 C1.66 2 2.32 2 3 2 C3 3.32 3 4.64 3 6 C3.66 6 4.32 6 5 6 C5.33 7.32 5.66 8.64 6 10 C5.34 10 4.68 10 4 10 C4 9.01 4 8.02 4 7 C3.34 7 2.68 7 2 7 C0 4 0 4 0 0 Z " fill="#D1D1D1" transform="translate(110,25)"/>
<path d="M0 0 C0.99 0 1.98 0 3 0 C2.67 1.98 2.34 3.96 2 6 C1.34 6 0.68 6 0 6 C-0.38218767 4.34385343 -0.71395102 2.67542976 -1 1 C-0.67 0.67 -0.34 0.34 0 0 Z " fill="#BABABA" transform="translate(57,10)"/>
<path d="M0 0 C0.99 0.33 1.98 0.66 3 1 C3.33 3.97 3.66 6.94 4 10 C3.34 10 2.68 10 2 10 C2 8.02 2 6.04 2 4 C1.34 4 0.68 4 0 4 C0 2.68 0 1.36 0 0 Z " fill="#585858" transform="translate(64,35)"/>
</svg>
