<?xml version="1.0" encoding="UTF-8"?>
<svg version="1.1" xmlns="http://www.w3.org/2000/svg" width="104" height="32">
<path d="M0 0 C3.96 0.33 7.92 0.66 12 1 C12 1.99 12 2.98 12 4 C11.01 4 10.02 4 9 4 C9.00785522 4.85549438 9.00785522 4.85549438 9.01586914 5.72827148 C9.03658221 8.29800323 9.0496419 10.86771747 9.0625 13.4375 C9.07087891 14.33533203 9.07925781 15.23316406 9.08789062 16.15820312 C9.09272461 17.43920898 9.09272461 17.43920898 9.09765625 18.74609375 C9.10551147 19.93223267 9.10551147 19.93223267 9.11352539 21.14233398 C9 23 9 23 8 24 C4.80859375 24.53125 4.80859375 24.53125 1 24 C-1.46816493 21.83143891 -3.1523412 19.24070023 -4.9375 16.5 C-5.43056641 15.78457031 -5.92363281 15.06914062 -6.43164062 14.33203125 C-7.64223982 12.56902271 -8.82402547 10.78629042 -10 9 C-10.33 12.3 -10.66 15.6 -11 19 C-10.01 19.66 -9.02 20.32 -8 21 C-8.33 21.99 -8.66 22.98 -9 24 C-12.63 24 -16.26 24 -20 24 C-20 22.68 -20 21.36 -20 20 C-19.01 20 -18.02 20 -17 20 C-17 14.72 -17 9.44 -17 4 C-17.99 4 -18.98 4 -20 4 C-20 3.01 -20 2.02 -20 1 C-16.00567213 -0.04300631 -12.96598344 -0.24241496 -9 1 C-4.43333248 5.20027534 -1.22769015 10.75578389 2 16 C2.33 12.04 2.66 8.08 3 4 C2.01 4 1.02 4 0 4 C0 2.68 0 1.36 0 0 Z " fill="#333333" transform="translate(58,4)"/>
<path d="M0 0 C3.96 0 7.92 0 12 0 C11.67 1.65 11.34 3.3 11 5 C12.17404173 8.11902711 12.17404173 8.11902711 13.9375 11.1875 C17 16.84510251 17 16.84510251 17 19 C17.99 19 18.98 19 20 19 C19.67 20.32 19.34 21.64 19 23 C15.7 23 12.4 23 9 23 C10 19 10 19 11 16 C9.02013918 16.11347619 7.04108402 16.2410935 5.0625 16.375 C3.40927734 16.47941406 3.40927734 16.47941406 1.72265625 16.5859375 C0.82417969 16.72257812 -0.07429687 16.85921875 -1 17 C-1.33 17.66 -1.66 18.32 -2 19 C-1.01 19.33 -0.02 19.66 1 20 C0.67 20.99 0.34 21.98 0 23 C-3.3 23 -6.6 23 -10 23 C-10 19 -10 19 -8.6953125 17.62109375 C-7.85613281 16.81865234 -7.85613281 16.81865234 -7 16 C-5.8992171 14.05309293 -4.86229684 12.06934207 -3.875 10.0625 C-3.35679688 9.02222656 -2.83859375 7.98195313 -2.3046875 6.91015625 C-0.84779623 3.88861749 -0.84779623 3.88861749 0 0 Z M4 4 C2.515 7.96 2.515 7.96 1 12 C3.31 12 5.62 12 8 12 C6.73025028 7.58477891 6.73025028 7.58477891 4 4 Z " fill="#3B3B3B" transform="translate(15,5)"/>
<path d="M0 0 C0.71994141 -0.00322266 1.43988281 -0.00644531 2.18164062 -0.00976562 C5.95349709 0.02875844 7.73089072 0.17476048 10.9375 2.3125 C11.625 4.9375 11.625 4.9375 11.9375 7.3125 C10.2875 7.6425 8.6375 7.9725 6.9375 8.3125 C6.2775 6.9925 5.6175 5.6725 4.9375 4.3125 C1.6375 4.3125 -1.6625 4.3125 -5.0625 4.3125 C-5.0625 8.9325 -5.0625 13.5525 -5.0625 18.3125 C-1.1025 18.3125 2.8575 18.3125 6.9375 18.3125 C6.9375 16.9925 6.9375 15.6725 6.9375 14.3125 C4.9575 14.3125 2.9775 14.3125 0.9375 14.3125 C0.9375 12.9925 0.9375 11.6725 0.9375 10.3125 C4.2375 10.3125 7.5375 10.3125 10.9375 10.3125 C12.06280066 13.68840199 12.44197885 15.78114805 11.9375 19.3125 C8.98453806 22.51857296 7.1393536 23.16490394 2.8203125 23.6953125 C-5.79384209 23.98831096 -5.79384209 23.98831096 -9.9296875 21.78515625 C-12.83684958 18.41476505 -12.7663866 15.49541933 -12.625 11.25 C-12.63595703 10.53005859 -12.64691406 9.81011719 -12.65820312 9.06835938 C-12.6148335 5.95442046 -12.46741179 3.83516675 -10.53125 1.3359375 C-7.03403545 -0.11385714 -3.7190492 -0.08368698 0 0 Z " fill="#454545" transform="translate(87.0625,4.6875)"/>
<path d="M0 0 C0.33 0.66 0.66 1.32 1 2 C1.99 2 2.98 2 4 2 C4 7.94 4 13.88 4 20 C3.01 20 2.02 20 1 20 C1 20.66 1 21.32 1 22 C2.98 21.67 4.96 21.34 7 21 C7 15.39 7 9.78 7 4 C7.99 4.33 8.98 4.66 10 5 C9.67 9.29 9.34 13.58 9 18 C9.99 18.66 10.98 19.32 12 20 C11.67 20.99 11.34 21.98 11 23 C7.37 23 3.74 23 0 23 C0 21.68 0 20.36 0 19 C0.99 19 1.98 19 3 19 C3 13.72 3 8.44 3 3 C2.01 3 1.02 3 0 3 C0 2.01 0 1.02 0 0 Z " fill="#8A8A8A" transform="translate(38,5)"/>
<path d="M0 0 C3.3 0 6.6 0 10 0 C11.09991843 3.29975529 11.35996895 5.54429807 11 9 C9.125 10.875 9.125 10.875 7 12 C6.34 12 5.68 12 5 12 C4.67 10.68 4.34 9.36 4 8 C4.66 8 5.32 8 6 8 C6 6.68 6 5.36 6 4 C4.02 4 2.04 4 0 4 C0 2.68 0 1.36 0 0 Z " fill="#4F4F4F" transform="translate(88,15)"/>
<path d="M0 0 C0.66 0.33 1.32 0.66 2 1 C2 2.32 2 3.64 2 5 C3.32 5 4.64 5 6 5 C5.67 5.99 5.34 6.98 5 8 C1.7 8 -1.6 8 -5 8 C-5 6.68 -5 5.36 -5 4 C-2.5 1.75 -2.5 1.75 0 0 Z " fill="#4E4E4E" transform="translate(10,20)"/>
<path d="M0 0 C1.65 0.33 3.3 0.66 5 1 C5 1.66 5 2.32 5 3 C5.99 3 6.98 3 8 3 C7.67 4.32 7.34 5.64 7 7 C3.7 7 0.4 7 -3 7 C-2.67 5.68 -2.34 4.36 -2 3 C-1.34 3 -0.68 3 0 3 C0 2.01 0 1.02 0 0 Z " fill="#505050" transform="translate(27,21)"/>
<path d="M0 0 C0.33 1.65 0.66 3.3 1 5 C-0.65 5.33 -2.3 5.66 -4 6 C-4.22429687 5.35546875 -4.44859375 4.7109375 -4.6796875 4.046875 C-5.82889456 1.75611148 -5.82889456 1.75611148 -8.3828125 1.390625 C-9.74019531 1.32101563 -9.74019531 1.32101563 -11.125 1.25 C-12.03507812 1.19328125 -12.94515625 1.1365625 -13.8828125 1.078125 C-14.58148438 1.05234375 -15.28015625 1.0265625 -16 1 C-16 0.67 -16 0.34 -16 0 C-10.47032059 -0.71033431 -5.50016964 -1.30267176 0 0 Z " fill="#565656" transform="translate(98,7)"/>
</svg>
