<svg version="1.2" xmlns="http://www.w3.org/2000/svg" viewBox="0 0 104 32" width="104" height="32">
	<title>New Project</title>
	<style>
		.s0 { fill: #000000 } 
	</style>
	<path id="A N G" class="s0" aria-label="A N G"  d="m24.6 32h-5.1l2.5-26.6h9.1l2.5 26.6h-5l-0.4-4.3h-3.2zm1.7-22.1l-1 13.5h2.4l-1.2-13.5zm21.4 22.1h-5.2v-26.6h5.4l2.5 12.7v-12.7h5.1v26.6h-5.2l-2.6-13.3zm23 0.2q-5.7 0-5.7-8.2v-11.4q0-7.5 6.5-7.5 2.7 0 4.1 1.1 1.5 1.1 2 3.1 0.6 2.1 0.6 5.1h-5.2v-2.4q0-0.8-0.3-1.4-0.2-0.6-1-0.6-0.9 0-1.2 0.6-0.3 0.6-0.3 1.4v12.9q0 1.1 0.3 1.8 0.3 0.6 1.1 0.6 0.9 0 1.1-0.6 0.3-0.7 0.3-1.8v-3.8h-1.4v-4.6h6.5v15.5h-2.1l-0.9-2.3q-1.4 2.5-4.4 2.5z"/>
</svg>